<svg width="351" height="698" viewBox="0 0 351 698" fill="none" xmlns="http://www.w3.org/2000/svg">
<g clip-path="url(#clip0_148_5170)">
<rect width="360" height="740" transform="translate(-2 -33)" fill="#1E1E1E"/>
<circle opacity="0.02" cx="286" cy="229" r="165" fill="white"/>
<circle opacity="0.02" cx="286" cy="229" r="118" fill="white"/>
<circle opacity="0.02" cx="286" cy="229" r="82" fill="white"/>
<circle opacity="0.3" cx="326.5" cy="155.5" r="4.5" fill="#B094FF"/>
<circle opacity="0.2" cx="97" cy="242" r="2" fill="#B094FF"/>
<circle opacity="0.3" cx="298" cy="360" r="3" fill="#96FF94"/>
<circle opacity="0.1" cx="325.5" cy="68.5" r="3.5" fill="#96FF94"/>
<circle opacity="0.1" cx="244.5" cy="124.5" r="2.5" fill="#FF9A94"/>
<circle opacity="0.3" cx="158" cy="270" r="2" fill="#FF9494"/>
<path d="M35.76 66.08H33.56V72.08H30.92V58.28H33.56V63.9H35.76V66.08ZM26.12 65.9C26.42 64.14 26.5 62.86 26.52 61.74H19.66V59.64H29.12V60.78C29.12 62.06 29.12 63.86 28.7 66.2L26.12 65.9ZM30.08 68.82C26.3 69.52 21.98 69.62 18.84 69.62L18.6 67.52C19.62 67.52 20.76 67.52 21.96 67.5V63.92H24.54V67.4C26.38 67.32 28.16 67.18 29.92 66.94L30.08 68.82ZM34.14 74.3V76.4H21.28V70.86H23.92V74.3H34.14ZM53.0984 76.72H50.5984V58.28H53.0984V76.72ZM49.2784 58.7V75.92H46.8184V69.88H44.2584V67.76H46.8184V65.26H44.5984C43.7784 68.3 41.9384 70.88 38.4984 72.9L36.9984 71.06C40.6184 68.82 42.2584 66.2 42.5784 62.58H38.0384V60.48H45.1984C45.1984 61.42 45.1384 62.3 45.0384 63.16H46.8184V58.7H49.2784ZM57.6969 60.4V58.62H70.2969V62.96H60.3369V63.92H70.6169V65.7H57.7369V61.3H67.6969V60.4H57.6969ZM72.3369 68.48H55.6569V66.58H72.3369V68.48ZM70.8569 74.78V76.56H57.5569V72.12H67.7369V71.18H57.5369V69.4H70.3569V73.78H60.1769V74.78H70.8569ZM80.6266 65.44V58.8H93.2666V60.9H83.2466V63.36H93.3666V65.44H80.6266ZM95.2666 68.88H78.6066V66.72H95.2666V68.88ZM86.8666 69.94C90.8466 69.94 93.2666 71.16 93.2666 73.34C93.2666 75.5 90.8466 76.72 86.8666 76.72C82.8866 76.72 80.4866 75.5 80.4866 73.34C80.4866 71.16 82.8866 69.94 86.8666 69.94ZM86.8666 74.72C89.3666 74.72 90.5866 74.3 90.5866 73.34C90.5866 72.4 89.3466 71.94 86.8666 71.94C84.3866 71.94 83.1466 72.4 83.1466 73.34C83.1466 74.3 84.3666 74.72 86.8666 74.72ZM113.665 70.26H96.985V68.16H104.005V66.84H99.065V61.78H109.025V60.66H99.025V58.66H111.625V63.64H101.665V64.84H112.005V66.84H106.645V68.16H113.665V70.26ZM111.745 71.3V76.66H109.105V73.38H98.825V71.3H111.745ZM129.843 67.68V76.72H127.203V58.3H129.843V65.5H132.483V67.68H129.843ZM126.003 61.02V63.12H115.283V61.02H119.363V58.62H122.003V61.02H126.003ZM120.703 64.16C123.363 64.16 125.343 65.98 125.343 68.54C125.343 71.16 123.363 72.96 120.703 72.96C118.023 72.96 116.023 71.16 116.023 68.54C116.023 65.98 118.023 64.16 120.703 64.16ZM120.703 70.8C121.983 70.8 122.843 69.98 122.843 68.54C122.843 67.16 121.983 66.3 120.703 66.3C119.423 66.3 118.543 67.12 118.543 68.56C118.543 70 119.423 70.8 120.703 70.8ZM145.482 70.16C146.182 66.7 146.222 64.12 146.222 61.98H135.482V59.88H148.862V61.64C148.862 63.94 148.862 66.56 148.122 70.46L145.482 70.16ZM150.462 74.5H133.802V72.38H139.682V66.04H142.322V72.38H150.462V74.5ZM19.66 91.36C23.44 90.88 25.38 89.12 25.64 87.34H20.34V85.24H34V87.34H28.78C29.04 89.12 30.96 90.88 34.72 91.36L33.78 93.42C30.56 92.96 28.32 91.64 27.2 89.72C26.08 91.64 23.84 92.96 20.62 93.42L19.66 91.36ZM28.46 96.58V102.76H25.82V96.58H18.88V94.48H35.52V96.58H28.46ZM48.9584 96.16C49.6584 92.7 49.6984 90.12 49.6984 87.98H38.9584V85.88H52.3384V87.64C52.3384 89.94 52.3384 92.56 51.5984 96.46L48.9584 96.16ZM53.9384 100.5H37.2784V98.38H43.1584V92.04H45.7984V98.38H53.9384V100.5ZM77.1281 90.66H74.6881V95.04H72.0481V84.3H74.6881V88.48H77.1281V90.66ZM60.7281 94.14V85.38H63.3281V87.7H66.9481V85.38H69.5481V94.14H60.7281ZM63.3281 89.72V92.08H66.9481V89.72H63.3281ZM75.1481 100.4V102.5H62.7281V95.84H74.8081V97.94H65.3481V100.4H75.1481ZM86.9066 92.44C82.9066 92.44 80.2466 90.98 80.2466 88.64C80.2466 86.3 82.9066 84.84 86.9066 84.84C90.9266 84.84 93.5866 86.3 93.5866 88.64C93.5866 90.98 90.9266 92.44 86.9066 92.44ZM86.9066 86.92C84.4066 86.92 82.9666 87.52 82.9666 88.64C82.9666 89.78 84.4066 90.34 86.9066 90.34C89.4066 90.34 90.8666 89.78 90.8666 88.64C90.8666 87.52 89.4066 86.92 86.9066 86.92ZM95.2266 95.8H78.5866V93.7H95.2266V95.8ZM93.3666 100.3V102.4H80.6066V97.04H83.2466V100.3H93.3666ZM115.936 93.42V102.72H113.296V84.32H115.936V91.24H118.616V93.42H115.936ZM110.876 86.04V98.24H102.076V86.04H110.876ZM108.276 96.16V88.12H104.676V96.16H108.276ZM128.235 84.66C132.315 84.66 134.915 86.02 134.915 88.24C134.915 90.48 132.315 91.82 128.235 91.82C124.175 91.82 121.575 90.48 121.575 88.24C121.575 86.02 124.175 84.66 128.235 84.66ZM128.235 86.68C125.735 86.68 124.295 87.2 124.295 88.24C124.295 89.28 125.735 89.8 128.235 89.8C130.815 89.8 132.195 89.28 132.195 88.24C132.195 87.2 130.815 86.68 128.235 86.68ZM136.555 94.96H119.915V92.88H136.555V94.96ZM134.575 102.5H121.855V96.26H134.575V102.5ZM124.435 100.44H131.975V98.32H124.435V100.44ZM146.633 90.84C142.293 90.84 139.973 89.78 139.973 87.7C139.973 85.68 142.293 84.56 146.633 84.56C151.013 84.56 153.313 85.68 153.313 87.7C153.313 89.78 151.013 90.84 146.633 90.84ZM146.633 86.5C143.973 86.5 142.713 86.88 142.713 87.7C142.713 88.56 143.973 88.92 146.633 88.92C149.373 88.92 150.573 88.56 150.573 87.7C150.573 86.88 149.373 86.5 146.633 86.5ZM154.953 93.78H138.313V91.72H154.953V93.78ZM153.413 100.6V102.58H140.233V97.74H150.333V96.76H140.213V94.82H152.933V99.56H142.853V100.6H153.413ZM176.583 102.7H173.923V84.28H176.583V102.7ZM171.103 86.2C171.103 91.82 169.203 96.46 162.663 99.6L161.283 97.52C165.983 95.28 168.023 92.38 168.403 88.3H162.263V86.2H171.103ZM196.321 96.26H179.641V94.16H186.661V92.84H181.721V87.78H191.681V86.66H181.681V84.66H194.281V89.64H184.321V90.84H194.661V92.84H189.301V94.16H196.321V96.26ZM194.401 97.3V102.66H191.761V99.38H181.481V97.3H194.401ZM213.84 102.7H211.34V93.92H209.94V101.94H207.48V84.64H209.94V91.8H211.34V84.28H213.84V102.7ZM206.82 87.08V89.18H198.02V87.08H201.16V84.8H203.76V87.08H206.82ZM202.46 89.98C204.8 89.98 206.5 91.8 206.5 94.38C206.5 96.94 204.8 98.76 202.46 98.76C200.12 98.76 198.42 96.94 198.42 94.38C198.42 91.8 200.12 89.98 202.46 89.98ZM202.46 96.56C203.48 96.56 204.18 95.76 204.18 94.38C204.18 93 203.48 92.18 202.46 92.18C201.44 92.18 200.74 93 200.74 94.38C200.74 95.76 201.44 96.56 202.46 96.56ZM233.118 100.58H216.438V98.44H223.438V95.06H218.198V85.44H220.818V88.3H228.698V85.44H231.298V95.06H226.078V98.44H233.118V100.58ZM228.698 92.96V90.38H220.818V92.96H228.698ZM250.637 102.72H248.137V84.3H250.637V102.72ZM246.857 84.6V101.9H244.397V92.66H242.097V90.52H244.397V84.6H246.857ZM240.717 88.9C240.717 91.88 241.517 94.94 244.017 96.6L242.577 98.64C240.977 97.68 240.037 96.12 239.457 94.26C238.817 96.34 237.757 98.04 236.077 99.06L234.497 97.08C237.197 95.44 238.177 92.14 238.177 89V85.9H240.717V88.9ZM269.915 100.58H253.235V98.44H256.915V93.94C255.475 93.08 254.675 91.76 254.695 90.16C254.695 87.14 257.615 85.2 261.555 85.2C265.535 85.2 268.435 87.14 268.435 90.16C268.435 91.76 267.595 93.08 266.215 93.94V98.44H269.915V100.58ZM261.555 87.28C258.995 87.28 257.295 88.32 257.295 90.16C257.295 92 258.995 93.04 261.555 93.04C264.115 93.04 265.835 92 265.835 90.16C265.835 88.32 264.115 87.28 261.555 87.28ZM263.595 98.44V94.92C262.955 95.04 262.275 95.1 261.555 95.1C260.855 95.1 260.175 95.04 259.535 94.92V98.44H263.595ZM272.073 101.28V98.44H274.993V101.28H272.073Z" fill="white"/>
<rect x="18" y="123" width="82" height="28" rx="8" fill="#383838"/>
<path d="M25.428 135.112C27.668 134.818 29.684 133.572 29.684 132.046V132.032H25.778V131.108H35.074V132.032H31.168V132.046C31.168 133.586 33.198 134.818 35.41 135.112L34.99 136.036C32.946 135.742 31.098 134.706 30.426 133.264C29.754 134.706 27.878 135.742 25.862 136.036L25.428 135.112ZM36.11 137.87H31.084V140.418H29.936V137.87H24.714V136.946H36.11V137.87ZM34.85 141.818V142.756H26.17V139.2H27.318V141.818H34.85ZM50.4118 136.456V143.036H49.2638V130.492H50.4118V135.49H52.4838V136.456H50.4118ZM47.0098 131.738V139.844H41.2558V131.738H47.0098ZM45.8898 138.92V132.662H42.3758V138.92H45.8898ZM59.3007 130.758C62.0167 130.758 63.7107 131.64 63.7107 133.138C63.7107 134.636 62.0167 135.504 59.3007 135.504C56.5847 135.504 54.8907 134.636 54.8907 133.138C54.8907 131.64 56.5847 130.758 59.3007 130.758ZM59.3007 131.668C57.2707 131.668 56.0667 132.186 56.0667 133.138C56.0667 134.09 57.2707 134.608 59.3007 134.608C61.3307 134.608 62.5347 134.09 62.5347 133.138C62.5347 132.186 61.3307 131.668 59.3007 131.668ZM64.9847 137.506H53.6307V136.582H64.9847V137.506ZM63.5987 142.868H55.0307V138.738H63.5987V142.868ZM56.1507 141.944H62.4787V139.648H56.1507V141.944Z" fill="white"/>
<path d="M80.05 136.806C80.05 140.502 78.384 142.196 76.144 142.196C73.96 142.196 72.28 140.502 72.28 136.806C72.28 133.082 73.96 131.402 76.144 131.402C78.384 131.402 80.05 133.082 80.05 136.806ZM78.09 136.806C78.09 133.824 77.166 133.012 76.144 133.012C75.178 133.012 74.24 133.824 74.24 136.806C74.24 139.774 75.178 140.572 76.144 140.572C77.166 140.572 78.09 139.774 78.09 136.806ZM91.6938 143.204H89.8458V130.31H91.6938V143.204ZM81.2638 133.18V131.738H84.2178V130.352H86.0658V131.738H89.0058V133.18H81.2638ZM86.0658 139.466C87.1298 139.41 88.1658 139.354 89.1738 139.2L89.3138 140.53C86.4998 141.048 83.5038 141.062 81.2358 141.062L81.0118 139.564C81.9778 139.564 83.0418 139.578 84.2178 139.536V138.444C82.8178 138.178 81.9358 137.31 81.9358 136.12C81.9358 134.664 83.2518 133.684 85.1418 133.684C87.0038 133.684 88.3338 134.664 88.3338 136.12C88.3338 137.31 87.4658 138.178 86.0658 138.444V139.466ZM83.6998 136.12C83.6998 136.778 84.2878 137.142 85.1418 137.142C86.0378 137.142 86.5838 136.778 86.5838 136.12C86.5838 135.448 86.0378 135.084 85.1418 135.084C84.2878 135.084 83.6998 135.448 83.6998 136.12Z" fill="#FA7F64"/>
<rect x="112" y="123" width="95" height="28" rx="8" fill="#383838"/>
<path d="M130.348 134.454H128.486V137.828H127.338V130.492H128.486V133.502H130.348V134.454ZM119.26 137.03V131.178H120.394V133.096H123.95V131.178H125.07V137.03H119.26ZM120.394 134.006V136.106H123.95V134.006H120.394ZM128.822 141.93V142.854H120.646V138.514H128.598V139.438H121.794V141.93H128.822ZM137.291 135.91C134.603 135.91 132.881 134.986 132.881 133.418C132.881 131.85 134.603 130.912 137.291 130.912C139.979 130.912 141.701 131.85 141.701 133.418C141.701 134.986 139.979 135.91 137.291 135.91ZM137.291 131.836C135.317 131.836 134.057 132.41 134.057 133.418C134.057 134.426 135.317 134.986 137.291 134.986C139.265 134.986 140.525 134.426 140.525 133.418C140.525 132.41 139.265 131.836 137.291 131.836ZM142.961 138.01H131.607V137.086H142.961V138.01ZM141.715 141.818V142.756H133.077V139.116H134.225V141.818H141.715ZM157.291 136.456V143.036H156.143V130.492H157.291V135.49H159.363V136.456H157.291ZM153.889 131.738V139.844H148.135V131.738H153.889ZM152.769 138.92V132.662H149.255V138.92H152.769ZM166.18 130.758C168.896 130.758 170.59 131.64 170.59 133.138C170.59 134.636 168.896 135.504 166.18 135.504C163.464 135.504 161.77 134.636 161.77 133.138C161.77 131.64 163.464 130.758 166.18 130.758ZM166.18 131.668C164.15 131.668 162.946 132.186 162.946 133.138C162.946 134.09 164.15 134.608 166.18 134.608C168.21 134.608 169.414 134.09 169.414 133.138C169.414 132.186 168.21 131.668 166.18 131.668ZM171.864 137.506H160.51V136.582H171.864V137.506ZM170.478 142.868H161.91V138.738H170.478V142.868ZM163.03 141.944H169.358V139.648H163.03V141.944Z" fill="white"/>
<path d="M187.05 136.806C187.05 140.502 185.384 142.196 183.144 142.196C180.96 142.196 179.28 140.502 179.28 136.806C179.28 133.082 180.96 131.402 183.144 131.402C185.384 131.402 187.05 133.082 187.05 136.806ZM185.09 136.806C185.09 133.824 184.166 133.012 183.144 133.012C182.178 133.012 181.24 133.824 181.24 136.806C181.24 139.774 182.178 140.572 183.144 140.572C184.166 140.572 185.09 139.774 185.09 136.806ZM198.694 143.204H196.846V130.31H198.694V143.204ZM188.264 133.18V131.738H191.218V130.352H193.066V131.738H196.006V133.18H188.264ZM193.066 139.466C194.13 139.41 195.166 139.354 196.174 139.2L196.314 140.53C193.5 141.048 190.504 141.062 188.236 141.062L188.012 139.564C188.978 139.564 190.042 139.578 191.218 139.536V138.444C189.818 138.178 188.936 137.31 188.936 136.12C188.936 134.664 190.252 133.684 192.142 133.684C194.004 133.684 195.334 134.664 195.334 136.12C195.334 137.31 194.466 138.178 193.066 138.444V139.466ZM190.7 136.12C190.7 136.778 191.288 137.142 192.142 137.142C193.038 137.142 193.584 136.778 193.584 136.12C193.584 135.448 193.038 135.084 192.142 135.084C191.288 135.084 190.7 135.448 190.7 136.12Z" fill="#FA7F64"/>
<rect x="18" y="175" width="320" height="56" rx="12" fill="white"/>
<circle cx="45" cy="202" r="6" stroke="#818181" stroke-width="2"/>
<path fill-rule="evenodd" clip-rule="evenodd" d="M49.2929 206.293C49.6834 205.902 50.3166 205.902 50.7071 206.293L53.7071 209.293C54.0976 209.683 54.0976 210.317 53.7071 210.707C53.3166 211.098 52.6834 211.098 52.2929 210.707L49.2929 207.707C48.9024 207.317 48.9024 206.683 49.2929 206.293Z" fill="#818181"/>
<path d="M73.546 203.38C72.09 202.946 71.026 202.036 70.466 200.86C69.92 202.162 68.772 203.142 67.302 203.632L66.742 202.722C68.59 202.162 69.878 200.72 69.878 199.082V198.872H67.092V197.948H69.878V196.422H71.026V197.948H73.798V198.872H71.026V199.082C71.026 200.58 72.244 201.966 74.092 202.498L73.546 203.38ZM78.348 200.538H76.486V203.772H75.338V196.492H76.486V199.586H78.348V200.538ZM73.182 205.368C73.406 206.67 75.156 207.776 77.186 208.112L76.752 208.994C74.918 208.7 73.294 207.776 72.58 206.53C71.866 207.79 70.27 208.686 68.408 208.98L68.002 208.098C70.032 207.804 71.796 206.684 71.978 205.368H68.478V204.458H76.696V205.368H73.182ZM85.2909 197.262C87.8949 197.262 89.8549 198.662 89.8549 200.734C89.8549 202.834 87.8949 204.206 85.2909 204.206C82.6869 204.206 80.7269 202.834 80.7269 200.734C80.7269 198.662 82.6869 197.262 85.2909 197.262ZM85.2909 198.2C83.3169 198.2 81.8189 199.222 81.8189 200.734C81.8189 202.26 83.3169 203.268 85.2909 203.268C87.2649 203.268 88.7629 202.26 88.7629 200.734C88.7629 199.222 87.2649 198.2 85.2909 198.2ZM91.0169 207.37H79.6069V206.418H91.0169V207.37ZM102.776 209.064H101.628V196.478H102.776V209.064ZM96.9518 199.824C96.9518 202.12 98.4638 204.444 100.312 205.27L99.6258 206.194C98.1698 205.48 96.9938 204.024 96.3918 202.218C95.8178 204.136 94.6138 205.648 93.1438 206.432L92.4438 205.494C94.2778 204.598 95.8178 202.232 95.8178 199.824V197.57H96.9518V199.824ZM106.905 201.196V196.94H108.053V200.258H115.445V201.196H106.905ZM116.747 203.8H105.365V202.876H116.747V203.8ZM115.515 207.79V208.728H106.821V205.06H107.969V207.79H115.515ZM131.664 209.064H130.516V196.478H131.664V209.064ZM125.042 197.444C126.904 197.444 128.234 199.152 128.234 201.826C128.234 204.5 126.904 206.208 125.042 206.208C123.18 206.208 121.85 204.5 121.85 201.826C121.85 199.152 123.18 197.444 125.042 197.444ZM125.042 198.48C123.81 198.48 122.942 199.796 122.942 201.826C122.942 203.87 123.81 205.186 125.042 205.186C126.26 205.186 127.128 203.87 127.128 201.826C127.128 199.796 126.26 198.48 125.042 198.48ZM135.695 197.682V196.8H144.193V199.754H136.857V200.986H144.459V201.882H135.723V198.9H143.059V197.682H135.695ZM145.649 203.884H134.267V202.96H145.649V203.884ZM144.207 205.046V208.868H135.793V205.046H144.207ZM143.073 207.944V205.956H136.913V207.944H143.073ZM157.422 209.064H156.274V196.478H157.422V209.064ZM150.8 197.444C152.662 197.444 153.992 199.152 153.992 201.826C153.992 204.5 152.662 206.208 150.8 206.208C148.938 206.208 147.608 204.5 147.608 201.826C147.608 199.152 148.938 197.444 150.8 197.444ZM150.8 198.48C149.568 198.48 148.7 199.796 148.7 201.826C148.7 203.87 149.568 205.186 150.8 205.186C152.018 205.186 152.886 203.87 152.886 201.826C152.886 199.796 152.018 198.48 150.8 198.48ZM172.312 203.66V196.492H173.46V203.66H172.312ZM166.712 203.072C164.822 203.072 163.45 201.882 163.45 200.146C163.45 198.41 164.822 197.22 166.712 197.22C168.616 197.22 170.002 198.41 170.002 200.146C170.002 201.882 168.616 203.072 166.712 203.072ZM166.712 198.172C165.466 198.172 164.57 198.984 164.57 200.146C164.57 201.308 165.466 202.12 166.712 202.12C167.958 202.12 168.882 201.308 168.882 200.146C168.882 198.984 167.958 198.172 166.712 198.172ZM172.06 204.878C172.06 206.18 172.97 207.482 174.58 208L174.006 208.868C172.774 208.42 171.92 207.566 171.486 206.502C171.094 207.524 170.338 208.476 169.162 208.98C167.93 208.49 167.202 207.608 166.824 206.544C166.376 207.552 165.522 208.42 164.346 208.868L163.772 208C165.354 207.44 166.292 206.096 166.292 204.878V204.206H167.398V204.878C167.398 205.998 167.958 207.174 169.134 207.86C170.338 207.104 170.94 205.858 170.94 204.878V204.206H172.06V204.878ZM181.705 197.262C184.309 197.262 186.269 198.662 186.269 200.734C186.269 202.834 184.309 204.206 181.705 204.206C179.101 204.206 177.141 202.834 177.141 200.734C177.141 198.662 179.101 197.262 181.705 197.262ZM181.705 198.2C179.731 198.2 178.233 199.222 178.233 200.734C178.233 202.26 179.731 203.268 181.705 203.268C183.679 203.268 185.177 202.26 185.177 200.734C185.177 199.222 183.679 198.2 181.705 198.2ZM187.431 207.37H176.021V206.418H187.431V207.37ZM198.07 205.69V196.478H199.218V205.69H198.07ZM195.872 203.646C194.416 203.1 193.338 201.994 192.778 200.538C192.232 202.064 191.112 203.282 189.642 203.898L189.04 202.96C190.944 202.246 192.19 200.412 192.19 198.452V197.178H193.338V198.452C193.338 200.342 194.626 202.064 196.474 202.736L195.872 203.646ZM199.596 208.756H191.14V204.836H192.288V207.818H199.596V208.756ZM211.453 202.526V209.036H210.305V196.478H211.453V201.574H213.469V202.526H211.453ZM208.205 197.822C208.205 201.392 206.567 204.64 202.507 206.656L201.877 205.76C205.139 204.122 206.805 201.798 207.071 198.774H202.465V197.822H208.205ZM226.068 207.426H214.658V206.474H217.458V203.086C216.394 202.54 215.778 201.63 215.778 200.496C215.778 198.55 217.682 197.276 220.342 197.276C223.016 197.276 224.906 198.55 224.906 200.496C224.906 201.63 224.318 202.526 223.254 203.072V206.474H226.068V207.426ZM220.342 198.172C218.326 198.172 216.884 199.096 216.884 200.496C216.884 201.896 218.326 202.82 220.342 202.82C222.358 202.82 223.814 201.896 223.814 200.496C223.814 199.096 222.358 198.172 220.342 198.172ZM222.106 206.474V203.52C221.504 203.646 220.916 203.716 220.342 203.716C219.726 203.716 219.152 203.646 218.606 203.52V206.474H222.106ZM229.469 208.182V206.866H230.743V208.182H229.469ZM229.609 205.564C229.287 202.064 231.709 202.54 231.709 200.202C231.709 199.25 231.135 198.424 230.141 198.424C229.427 198.424 228.559 198.858 228.447 200.426H227.369C227.523 197.934 229.119 197.346 230.281 197.346C231.863 197.346 232.843 198.592 232.843 200.118C232.843 202.876 230.309 202.554 230.659 205.564H229.609Z" fill="#818181"/>
<path d="M266.5 251.167C266.279 251.167 266.067 251.254 265.911 251.411C265.755 251.567 265.667 251.779 265.667 252C265.667 252.221 265.755 252.433 265.911 252.589C266.067 252.746 266.279 252.833 266.5 252.833C266.721 252.833 266.933 252.746 267.089 252.589C267.246 252.433 267.333 252.221 267.333 252C267.333 251.779 267.246 251.567 267.089 251.411C266.933 251.254 266.721 251.167 266.5 251.167ZM264.142 251.167C264.314 250.679 264.633 250.256 265.056 249.957C265.478 249.658 265.983 249.498 266.5 249.498C267.017 249.498 267.522 249.658 267.945 249.957C268.367 250.256 268.686 250.679 268.858 251.167H274.833C275.054 251.167 275.266 251.254 275.423 251.411C275.579 251.567 275.667 251.779 275.667 252C275.667 252.221 275.579 252.433 275.423 252.589C275.266 252.746 275.054 252.833 274.833 252.833H268.858C268.686 253.321 268.367 253.744 267.945 254.043C267.522 254.342 267.017 254.502 266.5 254.502C265.983 254.502 265.478 254.342 265.056 254.043C264.633 253.744 264.314 253.321 264.142 252.833H263.167C262.946 252.833 262.734 252.746 262.577 252.589C262.421 252.433 262.333 252.221 262.333 252C262.333 251.779 262.421 251.567 262.577 251.411C262.734 251.254 262.946 251.167 263.167 251.167H264.142ZM271.5 256.167C271.279 256.167 271.067 256.254 270.911 256.411C270.755 256.567 270.667 256.779 270.667 257C270.667 257.221 270.755 257.433 270.911 257.589C271.067 257.746 271.279 257.833 271.5 257.833C271.721 257.833 271.933 257.746 272.089 257.589C272.246 257.433 272.333 257.221 272.333 257C272.333 256.779 272.246 256.567 272.089 256.411C271.933 256.254 271.721 256.167 271.5 256.167ZM269.142 256.167C269.314 255.679 269.633 255.256 270.056 254.957C270.478 254.658 270.983 254.498 271.5 254.498C272.017 254.498 272.522 254.658 272.945 254.957C273.367 255.256 273.686 255.679 273.858 256.167H274.833C275.054 256.167 275.266 256.254 275.423 256.411C275.579 256.567 275.667 256.779 275.667 257C275.667 257.221 275.579 257.433 275.423 257.589C275.266 257.746 275.054 257.833 274.833 257.833H273.858C273.686 258.321 273.367 258.744 272.945 259.043C272.522 259.342 272.017 259.502 271.5 259.502C270.983 259.502 270.478 259.342 270.056 259.043C269.633 258.744 269.314 258.321 269.142 257.833H263.167C262.946 257.833 262.734 257.746 262.577 257.589C262.421 257.433 262.333 257.221 262.333 257C262.333 256.779 262.421 256.567 262.577 256.411C262.734 256.254 262.946 256.167 263.167 256.167H269.142ZM266.5 261.167C266.279 261.167 266.067 261.254 265.911 261.411C265.755 261.567 265.667 261.779 265.667 262C265.667 262.221 265.755 262.433 265.911 262.589C266.067 262.746 266.279 262.833 266.5 262.833C266.721 262.833 266.933 262.746 267.089 262.589C267.246 262.433 267.333 262.221 267.333 262C267.333 261.779 267.246 261.567 267.089 261.411C266.933 261.254 266.721 261.167 266.5 261.167ZM264.142 261.167C264.314 260.679 264.633 260.256 265.056 259.957C265.478 259.658 265.983 259.498 266.5 259.498C267.017 259.498 267.522 259.658 267.945 259.957C268.367 260.256 268.686 260.679 268.858 261.167H274.833C275.054 261.167 275.266 261.254 275.423 261.411C275.579 261.567 275.667 261.779 275.667 262C275.667 262.221 275.579 262.433 275.423 262.589C275.266 262.746 275.054 262.833 274.833 262.833H268.858C268.686 263.321 268.367 263.744 267.945 264.043C267.522 264.342 267.017 264.502 266.5 264.502C265.983 264.502 265.478 264.342 265.056 264.043C264.633 263.744 264.314 263.321 264.142 262.833H263.167C262.946 262.833 262.734 262.746 262.577 262.589C262.421 262.433 262.333 262.221 262.333 262C262.333 261.779 262.421 261.567 262.577 261.411C262.734 261.254 262.946 261.167 263.167 261.167H264.142Z" fill="white"/>
<path d="M295.418 256.624H293.5V263.064H292.058V250.422H293.5V255.42H295.418V256.624ZM290.196 251.766C290.196 255.434 288.628 258.682 284.498 260.768L283.7 259.662C286.766 258.08 288.46 255.84 288.754 252.942H284.33V251.766H290.196ZM308.297 256.554H306.379V263.078H304.937V250.436H306.379V255.364H308.297V256.554ZM298.469 258.724C300.219 258.71 301.997 258.57 303.915 258.178L304.083 259.368C301.941 259.802 299.995 259.928 298.077 259.928H297.027V251.668H298.469V258.724ZM321.232 256.484H319.258V263.092H317.816V250.422H319.258V255.294H321.232V256.484ZM311.418 258.78C313.434 258.78 315.016 258.668 316.766 258.374L316.92 259.564C315.016 259.9 313.294 259.984 311.012 259.984H309.976V251.626H315.856V252.802H311.418V258.78ZM335.73 255.84C333.7 255.518 332.034 254.524 331.194 253.124C330.396 254.524 328.758 255.56 326.672 255.882L326.112 254.734C328.604 254.398 330.452 252.872 330.452 251.276V250.758H331.936V251.276C331.936 252.83 333.798 254.37 336.276 254.706L335.73 255.84ZM336.934 256.778V257.94H332.034V260.306H330.592V257.94H325.468V256.778H336.934ZM328.31 261.664H335.66V262.84H326.868V259.158H328.31V261.664Z" fill="white"/>
<g filter="url(#filter0_d_148_5170)">
<rect x="282" y="619" width="56" height="56" rx="28" fill="white"/>
<path fill-rule="evenodd" clip-rule="evenodd" d="M311.667 635.333C311.667 634.413 310.92 633.667 310 633.667C309.079 633.667 308.333 634.413 308.333 635.333V645.333H298.333C297.413 645.333 296.667 646.08 296.667 647C296.667 647.92 297.413 648.667 298.333 648.667H308.333V658.667C308.333 659.587 309.079 660.333 310 660.333C310.92 660.333 311.667 659.587 311.667 658.667V648.667H321.667C322.587 648.667 323.333 647.92 323.333 647C323.333 646.08 322.587 645.333 321.667 645.333H311.667V635.333Z" fill="#FA7F64"/>
</g>
<rect width="360" height="56" transform="translate(-2 -9)" fill="#1E1E1E"/>
<path fill-rule="evenodd" clip-rule="evenodd" d="M326 17C324.895 17 324 17.8954 324 19C324 20.1046 324.895 21 326 21C327.105 21 328 20.1046 328 19C328 17.8954 327.105 17 326 17ZM322 19C322 16.7909 323.791 15 326 15C328.209 15 330 16.7909 330 19C330 21.2091 328.209 23 326 23C323.791 23 322 21.2091 322 19Z" fill="white"/>
<path fill-rule="evenodd" clip-rule="evenodd" d="M326 11C325.831 11 325.669 11.067 325.55 11.1864C325.431 11.3057 325.364 11.4676 325.364 11.6364V11.7794C325.362 12.2377 325.226 12.6855 324.973 13.0676C324.72 13.4497 324.361 13.7495 323.939 13.93C323.861 13.9637 323.778 13.9871 323.694 13.9998C323.316 14.1288 322.911 14.1598 322.516 14.0881C322.054 14.0044 321.627 13.7841 321.292 13.4558L321.284 13.4481L321.235 13.3989C321.176 13.3398 321.105 13.2924 321.028 13.2604C320.951 13.2284 320.868 13.2119 320.784 13.2119C320.7 13.2119 320.618 13.2284 320.54 13.2604C320.463 13.2924 320.393 13.3394 320.334 13.3985L320.333 13.3993C320.274 13.4584 320.227 13.5286 320.195 13.6059C320.163 13.6831 320.146 13.7659 320.146 13.8495C320.146 13.9332 320.163 14.016 320.195 14.0932C320.227 14.1705 320.274 14.2407 320.333 14.2998L320.39 14.3571C320.719 14.6927 320.939 15.1191 321.023 15.5811C321.105 16.0328 321.052 16.4983 320.873 16.9202C320.708 17.3503 320.421 17.7227 320.046 17.9909C319.662 18.2652 319.205 18.4178 318.733 18.4288L318.71 18.4291H318.636C318.468 18.4291 318.306 18.4961 318.186 18.6155C318.067 18.7348 318 18.8967 318 19.0655C318 19.2342 318.067 19.3961 318.186 19.5154C318.306 19.6348 318.468 19.7018 318.636 19.7018H318.779C319.238 19.7036 319.686 19.8395 320.068 20.0925C320.448 20.3446 320.747 20.702 320.928 21.1212C321.116 21.5495 321.172 22.0241 321.088 22.4843C321.004 22.9464 320.784 23.3727 320.456 23.7084L320.448 23.7162L320.399 23.7653C320.34 23.8244 320.292 23.895 320.26 23.9722C320.228 24.0495 320.212 24.1323 320.212 24.2159C320.212 24.2995 320.228 24.3823 320.26 24.4596C320.292 24.5369 320.339 24.607 320.399 24.6661L320.399 24.6669C320.458 24.7261 320.529 24.773 320.606 24.8051C320.683 24.8371 320.766 24.8536 320.85 24.8536C320.933 24.8536 321.016 24.8371 321.093 24.8051C321.17 24.773 321.241 24.7261 321.3 24.6669L321.357 24.6096C321.693 24.2813 322.119 24.0611 322.581 23.9773C323.033 23.8954 323.498 23.9476 323.92 24.1271C324.35 24.2919 324.723 24.5795 324.991 24.9545C325.265 25.338 325.418 25.7952 325.429 26.2666L325.429 26.29V26.3636C325.429 26.5324 325.496 26.6943 325.615 26.8136C325.735 26.933 325.897 27 326.065 27C326.234 27 326.396 26.933 326.515 26.8136C326.635 26.6943 326.702 26.5324 326.702 26.3636V26.2245L326.702 26.2206C326.704 25.7623 326.839 25.3145 327.093 24.9324C327.345 24.5518 327.702 24.2528 328.121 24.0721C328.549 23.8842 329.024 23.8284 329.484 23.9119C329.946 23.9956 330.373 24.2159 330.708 24.5442L330.716 24.5519L330.765 24.6011C330.824 24.6602 330.895 24.7076 330.972 24.7396C331.049 24.7716 331.132 24.7881 331.216 24.7881C331.3 24.7881 331.382 24.7716 331.46 24.7396C331.537 24.7076 331.607 24.6606 331.666 24.6015L331.667 24.6007C331.726 24.5416 331.773 24.4714 331.805 24.3941C331.837 24.3169 331.854 24.2341 331.854 24.1505C331.854 24.0668 331.837 23.984 331.805 23.9068C331.773 23.8295 331.726 23.7593 331.667 23.7002L331.61 23.6429C331.281 23.3073 331.061 22.8809 330.977 22.4189C330.894 21.9586 330.95 21.484 331.138 21.0557C331.318 20.6366 331.617 20.2791 331.998 20.0271C332.38 19.774 332.828 19.6382 333.286 19.6364L333.29 19.6364L333.364 19.6364C333.532 19.6364 333.694 19.5693 333.814 19.45C333.933 19.3306 334 19.1688 334 19C334 18.8312 333.933 18.6694 333.814 18.55C333.694 18.4307 333.532 18.3636 333.364 18.3636H333.225L333.221 18.3636C332.762 18.3618 332.314 18.226 331.932 17.9729C331.55 17.7199 331.25 17.3606 331.07 16.9394C331.036 16.8608 331.013 16.7784 331 16.6943C330.871 16.3164 330.84 15.9107 330.912 15.5157C330.996 15.0536 331.216 14.6273 331.544 14.2916L331.552 14.2838L331.601 14.2347C331.66 14.1756 331.708 14.105 331.74 14.0278C331.772 13.9505 331.788 13.8677 331.788 13.7841C331.788 13.7005 331.772 13.6177 331.74 13.5404C331.708 13.4631 331.661 13.393 331.601 13.3339L331.601 13.3331C331.542 13.2739 331.471 13.227 331.394 13.1949C331.317 13.1629 331.234 13.1464 331.15 13.1464C331.067 13.1464 330.984 13.1629 330.907 13.1949C330.83 13.227 330.759 13.2739 330.7 13.3331L330.643 13.3904C330.307 13.7187 329.881 13.9389 329.419 14.0227C328.959 14.1061 328.484 14.0503 328.056 13.8625C327.637 13.6817 327.279 13.3828 327.027 13.0022C326.774 12.6201 326.638 12.1723 326.636 11.714L326.636 11.71V11.6364C326.636 11.4676 326.569 11.3057 326.45 11.1864C326.331 11.067 326.169 11 326 11ZM332.055 21.4545L332.969 21.8583C332.941 21.9223 332.933 21.9933 332.945 22.0621C332.957 22.1297 332.989 22.1921 333.037 22.2417L333.08 22.2852C333.325 22.5301 333.52 22.8208 333.653 23.1409C333.785 23.4609 333.854 23.804 333.854 24.1505C333.854 24.4969 333.785 24.84 333.653 25.16C333.52 25.4801 333.325 25.7708 333.08 26.0157L332.374 25.3086L333.081 26.0149C332.836 26.26 332.546 26.4545 332.225 26.5871C331.905 26.7198 331.562 26.7881 331.216 26.7881C330.869 26.7881 330.526 26.7198 330.206 26.5871C329.886 26.4545 329.596 26.26 329.351 26.0149L329.307 25.9714C329.258 25.9239 329.195 25.892 329.128 25.8798C329.059 25.8673 328.988 25.8757 328.924 25.904L328.914 25.9083C328.851 25.9352 328.798 25.9798 328.76 26.0367C328.723 26.0932 328.702 26.1593 328.702 26.2271V26.3636C328.702 27.0628 328.424 27.7334 327.93 28.2278C327.435 28.7222 326.765 29 326.065 29C325.366 29 324.696 28.7222 324.201 28.2278C323.707 27.7334 323.429 27.0628 323.429 26.3636V26.3055C323.426 26.2381 323.403 26.1729 323.364 26.118C323.323 26.0608 323.266 26.0173 323.2 25.9931C323.181 25.9858 323.161 25.9779 323.142 25.9694C323.078 25.9412 323.007 25.9327 322.938 25.9452C322.87 25.9575 322.808 25.9894 322.758 26.0368L322.715 26.0804C322.715 26.0805 322.715 26.0802 322.715 26.0804C322.47 26.3253 322.179 26.52 321.859 26.6526C321.539 26.7853 321.196 26.8536 320.85 26.8536C320.503 26.8536 320.16 26.7853 319.84 26.6526C319.52 26.5199 319.229 26.3255 318.984 26.0804C318.74 25.8357 318.545 25.5452 318.413 25.2255C318.28 24.9054 318.212 24.5624 318.212 24.2159C318.212 23.8694 318.28 23.5264 318.413 23.2063C318.545 22.8865 318.74 22.5958 318.985 22.3511C318.985 22.3509 318.985 22.3512 318.985 22.3511L319.029 22.3071C319.076 22.2576 319.108 22.1951 319.12 22.1275C319.133 22.0587 319.124 21.9877 319.096 21.9238L319.092 21.914C319.065 21.8512 319.02 21.7977 318.963 21.76C318.907 21.7226 318.841 21.7024 318.773 21.7018H318.636C317.937 21.7018 317.267 21.4241 316.772 20.9296C316.278 20.4352 316 19.7647 316 19.0655C316 18.3662 316.278 17.6957 316.772 17.2013C317.267 16.7069 317.937 16.4291 318.636 16.4291H318.694C318.762 16.426 318.827 16.4035 318.882 16.3641C318.939 16.3233 318.983 16.2662 319.007 16.2003C319.014 16.1805 319.022 16.161 319.031 16.1417C319.059 16.0777 319.067 16.0067 319.055 15.9379C319.043 15.8703 319.011 15.8079 318.963 15.7583L318.92 15.7148C318.675 15.4699 318.48 15.1792 318.347 14.8591C318.215 14.5391 318.146 14.196 318.146 13.8495C318.146 13.5031 318.215 13.16 318.347 12.84C318.48 12.5201 318.674 12.2295 318.919 11.9847C319.164 11.7398 319.455 11.5455 319.775 11.4129C320.095 11.2802 320.438 11.2119 320.784 11.2119C321.131 11.2119 321.474 11.2802 321.794 11.4129C322.114 11.5455 322.404 11.74 322.649 11.9851L322.693 12.0286C322.742 12.0761 322.805 12.108 322.872 12.1202C322.941 12.1327 323.012 12.1243 323.076 12.096C323.128 12.0734 323.181 12.0552 323.235 12.0415C323.262 12.0193 323.286 11.993 323.305 11.9633C323.343 11.9068 323.363 11.8406 323.364 11.7728V11.6364C323.364 10.9372 323.641 10.2666 324.136 9.77217C324.63 9.27776 325.301 9 326 9C326.699 9 327.37 9.27776 327.864 9.77217C328.359 10.2666 328.636 10.9372 328.636 11.6364V11.7074C328.637 11.7752 328.657 11.8414 328.695 11.8979C328.732 11.9548 328.786 11.9994 328.848 12.0263L328.858 12.0305C328.922 12.0588 328.993 12.0673 329.062 12.0548C329.13 12.0425 329.192 12.0107 329.242 11.9632L329.285 11.9197C329.285 11.9195 329.285 11.9198 329.285 11.9197C329.53 11.6747 329.821 11.48 330.141 11.3474C330.461 11.2147 330.804 11.1464 331.15 11.1464C331.497 11.1464 331.84 11.2147 332.16 11.3474C332.48 11.4799 332.77 11.6741 333.015 11.9189C333.26 12.1637 333.454 12.4545 333.587 12.7745C333.72 13.0946 333.788 13.4376 333.788 13.7841C333.788 14.1306 333.72 14.4736 333.587 14.7937C333.455 15.1135 333.26 15.4042 333.015 15.6489C333.015 15.6491 333.015 15.6488 333.015 15.6489L332.971 15.6928C332.924 15.7424 332.892 15.8049 332.88 15.8725C332.867 15.9413 332.876 16.0123 332.904 16.0762C332.927 16.1275 332.945 16.1805 332.959 16.2346C332.981 16.2619 333.007 16.2858 333.037 16.3055C333.093 16.3429 333.159 16.3631 333.227 16.3636H333.364C334.063 16.3636 334.733 16.6414 335.228 17.1358C335.722 17.6302 336 18.3008 336 19C336 19.6992 335.722 20.3698 335.228 20.8642C334.733 21.3586 334.063 21.6364 333.364 21.6364H333.293C333.225 21.6369 333.159 21.6571 333.102 21.6945C333.045 21.7322 333.001 21.7857 332.974 21.8485L332.055 21.4545Z" fill="white"/>
<path d="M111.258 444.456V451.036H110.11V438.492H111.258V443.49H113.33V444.456H111.258ZM104.944 439.444C106.792 439.444 108.094 441.152 108.094 443.826C108.094 446.5 106.792 448.208 104.944 448.208C103.082 448.208 101.78 446.5 101.78 443.826C101.78 441.152 103.082 439.444 104.944 439.444ZM104.944 447.186C106.134 447.186 107.002 445.87 107.002 443.826C107.002 441.796 106.134 440.48 104.944 440.48C103.726 440.48 102.872 441.796 102.872 443.826C102.872 445.87 103.726 447.186 104.944 447.186ZM124.781 446.08H123.633V438.478H124.781V446.08ZM121.589 445.52C120.133 445.016 118.999 444.008 118.425 442.664C117.879 444.12 116.759 445.212 115.247 445.758L114.645 444.862C116.549 444.19 117.823 442.538 117.823 440.788V440.284H114.953V439.36H121.841V440.284H118.999V440.788C118.999 442.454 120.301 444.008 122.149 444.61L121.589 445.52ZM124.781 446.738V451.036H123.633V447.662H116.381V446.738H124.781ZM131.915 443.252V438.982H140.441V439.906H133.063V442.328H140.525V443.252H131.915ZM141.855 445.408H130.487V444.456H141.855V445.408ZM136.157 446.486C138.831 446.486 140.455 447.298 140.455 448.754C140.455 450.21 138.831 451.022 136.157 451.022C133.483 451.022 131.859 450.21 131.859 448.754C131.859 447.298 133.483 446.486 136.157 446.486ZM136.157 450.126C138.131 450.126 139.293 449.65 139.293 448.754C139.293 447.858 138.131 447.382 136.157 447.382C134.183 447.382 133.021 447.858 133.021 448.754C133.021 449.65 134.183 450.126 136.157 450.126ZM154.748 446.318H143.352V445.38H148.476V444.064H144.822V440.998H152.158V439.696H144.794V438.8H153.292V441.852H145.956V443.168H153.558V444.064H149.638V445.38H154.748V446.318ZM153.362 447.284V450.924H152.214V448.222H144.626V447.284H153.362ZM156.287 440.942V440.018H159.409V438.492H160.557V440.018H163.693V440.942H156.287ZM167.851 443.588H165.989V447.9H164.841V438.492H165.989V442.622H167.851V443.588ZM162.993 443.966C162.993 445.38 161.775 446.304 159.983 446.304C158.205 446.304 156.987 445.38 156.987 443.966C156.987 442.566 158.205 441.642 159.983 441.642C161.775 441.642 162.993 442.566 162.993 443.966ZM158.079 443.966C158.079 444.862 158.807 445.408 159.983 445.408C161.117 445.408 161.901 444.862 161.901 443.966C161.901 443.07 161.117 442.538 159.983 442.538C158.807 442.538 158.079 443.07 158.079 443.966ZM166.549 449.818V450.756H158.177V447.158H159.325V449.818H166.549ZM181.411 447.76V438.492H182.559V447.76H181.411ZM179.437 446.01C177.981 445.548 176.833 444.554 176.259 443.266C175.713 444.666 174.593 445.744 173.081 446.248L172.521 445.352C174.383 444.75 175.671 443.14 175.671 441.404V441.082H172.815V440.158H175.671V438.548H176.819V440.158H179.647V441.082H176.805V441.404C176.805 443.028 178.135 444.554 179.983 445.114L179.437 446.01ZM182.937 450.756H174.481V446.906H175.629V449.818H182.937V450.756ZM191.378 445.632V451.05H190.216V445.632H185.148V444.694H193.478C193.87 442.888 193.87 441.558 193.87 440.382V440.214H186.562V439.29H194.99V440.382C194.99 441.558 194.99 442.888 194.64 444.694H196.502V445.632H191.378ZM207.673 444.526V451.036H206.525V438.478H207.673V443.574H209.689V444.526H207.673ZM204.425 439.822C204.425 443.392 202.787 446.64 198.727 448.656L198.097 447.76C201.359 446.122 203.025 443.798 203.291 440.774H198.685V439.822H204.425ZM220.644 442.37C220.42 443.84 219.188 444.82 217.452 444.82C215.59 444.82 214.218 443.644 214.218 441.922C214.218 440.2 215.59 439.038 217.452 439.038C219.132 439.038 220.42 439.976 220.644 441.432H223.206V438.492H224.368V445.128H223.206V442.37H220.644ZM217.452 443.868C218.698 443.868 219.594 443.042 219.594 441.922C219.594 440.788 218.698 439.99 217.452 439.99C216.206 439.99 215.31 440.788 215.31 441.922C215.31 443.042 216.206 443.868 217.452 443.868ZM223.36 446.822C223.36 448.152 224.144 449.51 225.642 450.112L225.068 450.98C223.934 450.49 223.178 449.678 222.8 448.614C222.394 449.636 221.666 450.49 220.546 450.98L219.958 450.112C221.456 449.482 222.24 448.11 222.24 446.822V445.758H223.36V446.822ZM219.804 445.842V450.868H215.45V445.842H216.528V447.424H218.74V445.842H219.804ZM216.528 448.278V449.972H218.74V448.278H216.528ZM237.247 451.064H236.099V444.204H233.369C233.257 446.668 232.011 448.208 230.261 448.208C228.427 448.208 227.125 446.5 227.125 443.826C227.125 441.152 228.427 439.444 230.261 439.444C231.955 439.444 233.187 440.914 233.369 443.266H236.099V438.478H237.247V451.064ZM230.261 447.186C231.451 447.186 232.291 445.87 232.291 443.826C232.291 441.796 231.451 440.48 230.261 440.48C229.057 440.48 228.217 441.796 228.217 443.826C228.217 445.87 229.057 447.186 230.261 447.186ZM251.176 449.426H239.766V448.474H242.566V445.086C241.502 444.54 240.886 443.63 240.886 442.496C240.886 440.55 242.79 439.276 245.45 439.276C248.124 439.276 250.014 440.55 250.014 442.496C250.014 443.63 249.426 444.526 248.362 445.072V448.474H251.176V449.426ZM245.45 440.172C243.434 440.172 241.992 441.096 241.992 442.496C241.992 443.896 243.434 444.82 245.45 444.82C247.466 444.82 248.922 443.896 248.922 442.496C248.922 441.096 247.466 440.172 245.45 440.172ZM247.214 448.474V445.52C246.612 445.646 246.024 445.716 245.45 445.716C244.834 445.716 244.26 445.646 243.714 445.52V448.474H247.214ZM253.779 448.88V450.196H252.505V448.88H253.779ZM64.6168 464.456V471.036H63.4688V458.492H64.6168V463.49H66.6888V464.456H64.6168ZM61.2148 459.738V467.844H55.4608V459.738H61.2148ZM60.0948 466.92V460.662H56.5808V466.92H60.0948ZM73.5058 458.758C76.2218 458.758 77.9158 459.64 77.9158 461.138C77.9158 462.636 76.2218 463.504 73.5058 463.504C70.7897 463.504 69.0958 462.636 69.0958 461.138C69.0958 459.64 70.7897 458.758 73.5058 458.758ZM73.5058 459.668C71.4758 459.668 70.2718 460.186 70.2718 461.138C70.2718 462.09 71.4758 462.608 73.5058 462.608C75.5358 462.608 76.7398 462.09 76.7398 461.138C76.7398 460.186 75.5358 459.668 73.5058 459.668ZM79.1898 465.506H67.8358V464.582H79.1898V465.506ZM77.8038 470.868H69.2358V466.738H77.8038V470.868ZM70.3558 469.944H76.6838V467.648H70.3558V469.944ZM86.3847 463.042C83.6267 463.042 81.9747 462.286 81.9747 460.872C81.9747 459.458 83.6267 458.688 86.3847 458.688C89.1427 458.688 90.7947 459.458 90.7947 460.872C90.7947 462.286 89.1427 463.042 86.3847 463.042ZM86.3847 459.556C84.2987 459.556 83.1507 460.032 83.1507 460.872C83.1507 461.712 84.2987 462.188 86.3847 462.188C88.4707 462.188 89.6187 461.712 89.6187 460.872C89.6187 460.032 88.4707 459.556 86.3847 459.556ZM92.0687 464.82H80.7007V463.896H92.0687V464.82ZM90.9907 470V470.896H82.1147V467.886H89.4787V466.766H82.0727V465.898H90.6127V468.726H83.2347V470H90.9907ZM107.028 471.036H105.88V458.478H107.028V471.036ZM103.346 459.836C103.346 463.462 101.694 466.64 97.5084 468.698L96.8924 467.76C100.266 466.15 101.946 463.742 102.184 460.76H97.4664V459.836H103.346ZM120.985 466.318H109.589V465.38H114.713V464.064H111.059V460.998H118.395V459.696H111.031V458.8H119.529V461.852H112.193V463.168H119.795V464.064H115.875V465.38H120.985V466.318ZM119.599 467.284V470.924H118.451V468.222H110.863V467.284H119.599ZM132.156 464.61V471.036H131.008V458.492H132.156V463.644H134.214V464.61H132.156ZM129.818 460.494V461.418H122.412V460.494H125.576V458.632H126.724V460.494H129.818ZM126.164 462.454C127.956 462.454 129.23 463.672 129.23 465.352C129.23 467.074 127.956 468.236 126.164 468.236C124.4 468.236 123.126 467.074 123.126 465.352C123.126 463.672 124.4 462.454 126.164 462.454ZM126.164 467.284C127.326 467.284 128.138 466.472 128.138 465.352C128.138 464.232 127.326 463.406 126.164 463.406C125.03 463.406 124.204 464.232 124.204 465.352C124.204 466.472 125.03 467.284 126.164 467.284ZM145.693 471.05H144.545V465.716H141.983V464.778H144.545V462.272H142.067V461.334H144.545V458.464H145.693V471.05ZM136.957 467.172C138.791 467.172 140.359 467.088 142.221 466.794L142.319 467.746C140.345 468.04 138.749 468.124 136.775 468.124H135.823V463.168H140.149V460.536H135.795V459.612H141.283V464.106H136.957V467.172ZM148.814 465.436V459.584H154.54V460.69H157.424V458.492H158.586V467.648H157.424V464.316H154.54V465.436H148.814ZM149.948 460.494V464.526H153.42V460.494H149.948ZM154.54 463.378H157.424V461.628H154.54V463.378ZM158.88 470.756H150.508V466.836H151.656V469.818H158.88V470.756ZM164.824 465.408V459.584H170.55V461.978H173.434V458.492H174.596V467.648H173.434V462.916H170.55V465.408H164.824ZM165.958 460.494V464.484H169.43V460.494H165.958ZM174.946 470.756H166.56V466.808H167.722V469.818H174.946V470.756ZM187.475 471.05H186.327V463.98H183.611V463.042H186.327V458.478H187.475V471.05ZM181.469 462.16C181.469 464.218 182.939 466.542 184.759 467.396L184.073 468.292C182.687 467.578 181.455 466.08 180.895 464.344C180.335 466.206 179.131 467.802 177.703 468.558L177.031 467.648C178.823 466.752 180.321 464.386 180.321 462.16V460.704H177.479V459.766H184.325V460.704H181.469V462.16ZM202.294 467.76V458.492H203.442V467.76H202.294ZM200.32 466.01C198.864 465.548 197.716 464.554 197.142 463.266C196.596 464.666 195.476 465.744 193.964 466.248L193.404 465.352C195.266 464.75 196.554 463.14 196.554 461.404V461.082H193.698V460.158H196.554V458.548H197.702V460.158H200.53V461.082H197.688V461.404C197.688 463.028 199.018 464.554 200.866 465.114L200.32 466.01ZM203.82 470.756H195.364V466.906H196.512V469.818H203.82V470.756ZM212.261 465.632V471.05H211.099V465.632H206.031V464.694H214.361C214.753 462.888 214.753 461.558 214.753 460.382V460.214H207.445V459.29H215.873V460.382C215.873 461.558 215.873 462.888 215.523 464.694H217.385V465.632H212.261ZM220.324 459.654V458.842H228.822V461.46H221.486V462.538H229.046V463.364H220.352V460.676H227.688V459.654H220.324ZM230.278 465.184H218.896V464.316H230.278V465.184ZM229.256 470.042V470.868H220.282V468.082H227.73V467.032H220.254V466.206H228.864V468.88H221.416V470.042H229.256ZM236.334 463.252V458.982H244.86V459.906H237.482V462.328H244.944V463.252H236.334ZM246.274 465.408H234.906V464.456H246.274V465.408ZM240.576 466.486C243.25 466.486 244.874 467.298 244.874 468.754C244.874 470.21 243.25 471.022 240.576 471.022C237.902 471.022 236.278 470.21 236.278 468.754C236.278 467.298 237.902 466.486 240.576 466.486ZM240.576 470.126C242.55 470.126 243.712 469.65 243.712 468.754C243.712 467.858 242.55 467.382 240.576 467.382C238.602 467.382 237.44 467.858 237.44 468.754C237.44 469.65 238.602 470.126 240.576 470.126ZM259.167 466.318H247.771V465.38H252.895V464.064H249.241V460.998H256.577V459.696H249.213V458.8H257.711V461.852H250.375V463.168H257.977V464.064H254.057V465.38H259.167V466.318ZM257.781 467.284V470.924H256.633V468.222H249.045V467.284H257.781ZM270.338 464.61V471.036H269.19V458.492H270.338V463.644H272.396V464.61H270.338ZM268 460.494V461.418H260.594V460.494H263.758V458.632H264.906V460.494H268ZM264.346 462.454C266.138 462.454 267.412 463.672 267.412 465.352C267.412 467.074 266.138 468.236 264.346 468.236C262.582 468.236 261.308 467.074 261.308 465.352C261.308 463.672 262.582 462.454 264.346 462.454ZM264.346 467.284C265.508 467.284 266.32 466.472 266.32 465.352C266.32 464.232 265.508 463.406 264.346 463.406C263.212 463.406 262.386 464.232 262.386 465.352C262.386 466.472 263.212 467.284 264.346 467.284ZM284.211 471.036H283.119V458.478H284.211V471.036ZM281.649 458.758V470.42H280.571V463.938H278.499V462.986H280.571V458.758H281.649ZM277.267 462.02C277.267 464.036 278.219 466.164 279.857 467.172L279.199 468.068C278.009 467.34 277.169 466.01 276.721 464.484C276.273 466.178 275.363 467.564 274.117 468.348L273.403 467.48C275.125 466.472 276.161 464.232 276.161 462.062V459.668H277.267V462.02ZM297.818 469.426H286.408V468.474H289.208V465.086C288.144 464.54 287.528 463.63 287.528 462.496C287.528 460.55 289.432 459.276 292.092 459.276C294.766 459.276 296.656 460.55 296.656 462.496C296.656 463.63 296.068 464.526 295.004 465.072V468.474H297.818V469.426ZM292.092 460.172C290.076 460.172 288.634 461.096 288.634 462.496C288.634 463.896 290.076 464.82 292.092 464.82C294.108 464.82 295.564 463.896 295.564 462.496C295.564 461.096 294.108 460.172 292.092 460.172ZM293.856 468.474V465.52C293.254 465.646 292.666 465.716 292.092 465.716C291.476 465.716 290.902 465.646 290.356 465.52V468.474H293.856ZM300.421 468.88V470.196H299.147V468.88H300.421Z" fill="white"/>
</g>
<defs>
<filter id="filter0_d_148_5170" x="274" y="611" width="76" height="76" filterUnits="userSpaceOnUse" color-interpolation-filters="sRGB">
<feFlood flood-opacity="0" result="BackgroundImageFix"/>
<feColorMatrix in="SourceAlpha" type="matrix" values="0 0 0 0 0 0 0 0 0 0 0 0 0 0 0 0 0 0 127 0" result="hardAlpha"/>
<feOffset dx="2" dy="2"/>
<feGaussianBlur stdDeviation="5"/>
<feComposite in2="hardAlpha" operator="out"/>
<feColorMatrix type="matrix" values="0 0 0 0 0 0 0 0 0 0 0 0 0 0 0 0 0 0 0.25 0"/>
<feBlend mode="normal" in2="BackgroundImageFix" result="effect1_dropShadow_148_5170"/>
<feBlend mode="normal" in="SourceGraphic" in2="effect1_dropShadow_148_5170" result="shape"/>
</filter>
<clipPath id="clip0_148_5170">
<rect width="360" height="740" fill="white" transform="translate(-2 -33)"/>
</clipPath>
</defs>
</svg>
