<svg width="16" height="16" viewBox="0 0 16 16" fill="none" xmlns="http://www.w3.org/2000/svg">
<path fill-rule="evenodd" clip-rule="evenodd" d="M6.92163 1.38402C7.17074 1.48721 7.33317 1.7303 7.33317 1.99994L7.33317 12.6666C7.33317 13.0348 7.03469 13.3333 6.6665 13.3333C6.29831 13.3333 5.99984 13.0348 5.99984 12.6666L5.99984 3.60941L4.80458 4.80468C4.54423 5.06503 4.12212 5.06503 3.86177 4.80468C3.60142 4.54433 3.60142 4.12222 3.86177 3.86187L6.1951 1.52853C6.38577 1.33787 6.67251 1.28083 6.92163 1.38402Z" fill="#818181"/>
<path fill-rule="evenodd" clip-rule="evenodd" d="M9.07837 14.616C8.82926 14.5128 8.66683 14.2697 8.66683 14.0001L8.66683 3.33339C8.66683 2.9652 8.96531 2.66673 9.3335 2.66673C9.70169 2.66673 10.0002 2.9652 10.0002 3.33339L10.0002 12.3906L11.1954 11.1953C11.4558 10.935 11.8779 10.935 12.1382 11.1953C12.3986 11.4557 12.3986 11.8778 12.1382 12.1381L9.8049 14.4715C9.61424 14.6621 9.32749 14.7192 9.07837 14.616Z" fill="#818181"/>
</svg>
