<svg width="24" height="24" viewBox="0 0 24 24" fill="none" xmlns="http://www.w3.org/2000/svg">
<path fill-rule="evenodd" clip-rule="evenodd" d="M19.6704 6.30553C19.8814 6.50122 20 6.76659 20 7.04329C20 7.32 19.8814 7.58537 19.6704 7.78106L8.9745 17.6945C8.76337 17.8901 8.47705 18 8.1785 18C7.87996 18 7.59364 17.8901 7.38251 17.6945L2.31605 12.9986C2.11096 12.8018 1.99748 12.5382 2.00004 12.2646C2.00261 11.991 2.12102 11.7293 2.32976 11.5358C2.53851 11.3423 2.82089 11.2326 3.1161 11.2302C3.4113 11.2278 3.6957 11.333 3.90804 11.5231L8.1785 15.4812L18.0784 6.30553C18.2895 6.1099 18.5758 6 18.8744 6C19.1729 6 19.4592 6.1099 19.6704 6.30553Z" fill="#818181"/>
</svg>
