<svg width="16" height="16" viewBox="0 0 16 16" fill="none" xmlns="http://www.w3.org/2000/svg">
<path fill-rule="evenodd" clip-rule="evenodd" d="M8.00004 13.6666C11.1297 13.6666 13.6667 11.1295 13.6667 7.99992C13.6667 4.87031 11.1297 2.33325 8.00004 2.33325C4.87043 2.33325 2.33337 4.87031 2.33337 7.99992C2.33337 11.1295 4.87043 13.6666 8.00004 13.6666ZM8.00004 14.6666C11.6819 14.6666 14.6667 11.6818 14.6667 7.99992C14.6667 4.31802 11.6819 1.33325 8.00004 1.33325C4.31814 1.33325 1.33337 4.31802 1.33337 7.99992C1.33337 11.6818 4.31814 14.6666 8.00004 14.6666Z" fill="#818181"/>
<path fill-rule="evenodd" clip-rule="evenodd" d="M11.0681 5.72255C11.1526 5.80083 11.2 5.90698 11.2 6.01766C11.2 6.12834 11.1526 6.23449 11.0681 6.31277L6.7898 10.2781C6.70535 10.3564 6.59082 10.4003 6.4714 10.4003C6.35198 10.4003 6.23746 10.3564 6.153 10.2781L4.12642 8.3998C4.04438 8.32108 3.99899 8.21564 4.00002 8.1062C4.00104 7.99675 4.04841 7.89206 4.13191 7.81467C4.2154 7.73728 4.32836 7.69338 4.44644 7.69243C4.56452 7.69148 4.67828 7.73355 4.76322 7.80959L6.4714 9.39281L10.4313 5.72255C10.5158 5.6443 10.6303 5.60034 10.7497 5.60034C10.8692 5.60034 10.9837 5.6443 11.0681 5.72255Z" fill="#818181"/>
</svg>
