<svg width="40" height="40" viewBox="0 0 40 40" fill="none" xmlns="http://www.w3.org/2000/svg">
<path fill-rule="evenodd" clip-rule="evenodd" d="M29.4281 12.9289C30.079 12.278 30.079 11.2228 29.4281 10.5719C28.7772 9.92102 27.7219 9.92102 27.0711 10.5719L20 17.643L12.9289 10.5719C12.2781 9.92101 11.2228 9.92101 10.5719 10.5719C9.92104 11.2228 9.92104 12.278 10.5719 12.9289L17.643 20L10.5719 27.071C9.92103 27.7219 9.92104 28.7772 10.5719 29.4281C11.2228 30.0789 12.2781 30.0789 12.9289 29.4281L20 22.357L27.0711 29.4281C27.7219 30.0789 28.7772 30.0789 29.4281 29.4281C30.079 28.7772 30.079 27.7219 29.4281 27.071L22.357 20L29.4281 12.9289Z" fill="white"/>
</svg>
