<svg width="16" height="16" viewBox="0 0 16 16" fill="none" xmlns="http://www.w3.org/2000/svg">
<path fill-rule="evenodd" clip-rule="evenodd" d="M8.00096 14.6668C11.6829 14.6668 14.6676 11.6821 14.6676 8.00016C14.6676 4.31826 11.6829 1.3335 8.00096 1.3335C4.31906 1.3335 1.33429 4.31826 1.33429 8.00016C1.33429 11.6821 4.31906 14.6668 8.00096 14.6668ZM11.6718 6.36787C11.8751 6.1809 11.8882 5.86459 11.7013 5.66137C11.5143 5.45815 11.198 5.44497 10.9948 5.63194L6.98549 9.32049L5.00518 7.4986C4.80196 7.31164 4.48565 7.32482 4.29868 7.52804C4.11172 7.73126 4.1249 8.04757 4.32812 8.23453L6.64696 10.3679C6.83832 10.5439 7.13266 10.5439 7.32402 10.3679L11.6718 6.36787Z" fill="#FA7F64"/>
</svg>
