<svg width="24" height="24" viewBox="0 0 24 24" fill="none" xmlns="http://www.w3.org/2000/svg">
<circle cx="12" cy="12" r="8" fill="#818181"/>
<path fill-rule="evenodd" clip-rule="evenodd" d="M15.9598 9.03007C16.2332 8.7567 16.2332 8.31349 15.9598 8.04012C15.6864 7.76675 15.2432 7.76675 14.9698 8.04012L12 11.01L9.03015 8.04012C8.75678 7.76675 8.31357 7.76675 8.0402 8.04012C7.76684 8.31349 7.76684 8.7567 8.0402 9.03007L11.0101 11.9999L8.0402 14.9698C7.76684 15.2431 7.76684 15.6863 8.0402 15.9597C8.31357 16.2331 8.75678 16.2331 9.03015 15.9597L12 12.9899L14.9698 15.9597C15.2432 16.2331 15.6864 16.2331 15.9598 15.9597C16.2332 15.6863 16.2332 15.2431 15.9598 14.9698L12.9899 11.9999L15.9598 9.03007Z" fill="#242424"/>
</svg>
