<svg width="16" height="16" viewBox="0 0 16 16" fill="none" xmlns="http://www.w3.org/2000/svg">
<path fill-rule="evenodd" clip-rule="evenodd" d="M6.92175 1.38408C7.17086 1.48727 7.33329 1.73036 7.33329 2L7.33329 12.6667C7.33329 13.0349 7.03482 13.3333 6.66663 13.3333C6.29844 13.3333 5.99996 13.0349 5.99996 12.6667L5.99996 3.60948L4.8047 4.80474C4.54435 5.06509 4.12224 5.06509 3.86189 4.80474C3.60154 4.54439 3.60154 4.12228 3.86189 3.86193L6.19522 1.52859C6.38589 1.33793 6.67263 1.28089 6.92175 1.38408Z" fill="#818181"/>
<path fill-rule="evenodd" clip-rule="evenodd" d="M9.07825 14.6159C8.82914 14.5127 8.66671 14.2696 8.66671 14L8.66671 3.33333C8.66671 2.96514 8.96519 2.66667 9.33338 2.66667C9.70157 2.66667 10 2.96514 10 3.33333L10 12.3905L11.1953 11.1953C11.4557 10.9349 11.8778 10.9349 12.1381 11.1953C12.3985 11.4556 12.3985 11.8777 12.1381 12.1381L9.80478 14.4714C9.61411 14.6621 9.32737 14.7191 9.07825 14.6159Z" fill="#818181"/>
</svg>
