<svg width="24" height="24" viewBox="0 0 24 24" fill="none" xmlns="http://www.w3.org/2000/svg">
<path d="M7.14528 7H9.23208L9.9717 8.25C10.1962 8.65 10.4075 9.0375 10.6321 9.425H10.6849C10.8566 9.0375 11.0547 8.6375 11.2264 8.25L11.8472 7H13.8547L11.6887 10.5625L14 14H11.9132L11.0943 12.725C10.8434 12.3125 10.6321 11.8875 10.3811 11.4875H10.3151C10.1038 11.8875 9.90566 12.2875 9.69434 12.725L9.00755 14H7L9.31132 10.35L7.14528 7Z" fill="white"/>
<path fill-rule="evenodd" clip-rule="evenodd" d="M5 5V19H12C12.5523 19 13 19.4477 13 20C13 20.5523 12.5523 21 12 21H5C4.53289 21 4.05176 20.8534 3.6682 20.5466C3.27885 20.2351 3 19.7586 3 19.2V4.8C3 4.24143 3.27885 3.76492 3.6682 3.45345C4.05176 3.1466 4.53289 3 5 3H19C19.4671 3 19.9482 3.1466 20.3318 3.45345C20.7212 3.76493 21 4.24143 21 4.8V12C21 12.5523 20.5523 13 20 13C19.4477 13 19 12.5523 19 12V5H5Z" fill="white"/>
<path d="M17.75 20.6006C17.1977 20.6006 16.75 20.1529 16.75 19.6006L16.75 14.4006C16.75 13.8483 17.1977 13.4006 17.75 13.4006C18.3023 13.4006 18.75 13.8483 18.75 14.4006L18.75 19.6006C18.75 20.1529 18.3023 20.6006 17.75 20.6006Z" fill="white"/>
<path fill-rule="evenodd" clip-rule="evenodd" d="M18.3747 20.9811C18.0094 21.2732 17.4905 21.2732 17.1253 20.9811L14.8753 19.1811C14.444 18.8361 14.3741 18.2068 14.7191 17.7755C15.0641 17.3442 15.6934 17.2743 16.1247 17.6193L17.75 18.9196L19.3753 17.6193C19.8065 17.2743 20.4358 17.3442 20.7808 17.7755C21.1258 18.2068 21.0559 18.8361 20.6247 19.1811L18.3747 20.9811Z" fill="white"/>
</svg>
