<svg width="20" height="20" viewBox="0 0 20 20" fill="none" xmlns="http://www.w3.org/2000/svg">
<path d="M7.50004 4.16676C7.27903 4.16676 7.06707 4.25455 6.91079 4.41083C6.75451 4.56711 6.66671 4.77908 6.66671 5.00009C6.66671 5.2211 6.75451 5.43306 6.91079 5.58934C7.06707 5.74562 7.27903 5.83342 7.50004 5.83342C7.72105 5.83342 7.93302 5.74562 8.0893 5.58934C8.24558 5.43306 8.33337 5.2211 8.33337 5.00009C8.33337 4.77908 8.24558 4.56711 8.0893 4.41083C7.93302 4.25455 7.72105 4.16676 7.50004 4.16676ZM5.14171 4.16676C5.31388 3.67881 5.63316 3.25628 6.05554 2.95741C6.47792 2.65854 6.98261 2.49805 7.50004 2.49805C8.01747 2.49805 8.52216 2.65854 8.94454 2.95741C9.36693 3.25628 9.68621 3.67881 9.85837 4.16676H15.8334C16.0544 4.16676 16.2664 4.25455 16.4226 4.41083C16.5789 4.56711 16.6667 4.77908 16.6667 5.00009C16.6667 5.2211 16.5789 5.43306 16.4226 5.58934C16.2664 5.74562 16.0544 5.83342 15.8334 5.83342H9.85837C9.68621 6.32137 9.36693 6.74389 8.94454 7.04277C8.52216 7.34164 8.01747 7.50213 7.50004 7.50213C6.98261 7.50213 6.47792 7.34164 6.05554 7.04277C5.63316 6.74389 5.31388 6.32137 5.14171 5.83342H4.16671C3.94569 5.83342 3.73373 5.74562 3.57745 5.58934C3.42117 5.43306 3.33337 5.2211 3.33337 5.00009C3.33337 4.77908 3.42117 4.56711 3.57745 4.41083C3.73373 4.25455 3.94569 4.16676 4.16671 4.16676H5.14171ZM12.5 9.16676C12.279 9.16676 12.0671 9.25455 11.9108 9.41083C11.7545 9.56711 11.6667 9.77908 11.6667 10.0001C11.6667 10.2211 11.7545 10.4331 11.9108 10.5893C12.0671 10.7456 12.279 10.8334 12.5 10.8334C12.7211 10.8334 12.933 10.7456 13.0893 10.5893C13.2456 10.4331 13.3334 10.2211 13.3334 10.0001C13.3334 9.77908 13.2456 9.56711 13.0893 9.41083C12.933 9.25455 12.7211 9.16676 12.5 9.16676ZM10.1417 9.16676C10.3139 8.67881 10.6332 8.25628 11.0555 7.95741C11.4779 7.65854 11.9826 7.49805 12.5 7.49805C13.0175 7.49805 13.5222 7.65854 13.9445 7.95741C14.3669 8.25628 14.6862 8.67881 14.8584 9.16676H15.8334C16.0544 9.16676 16.2664 9.25455 16.4226 9.41083C16.5789 9.56711 16.6667 9.77908 16.6667 10.0001C16.6667 10.2211 16.5789 10.4331 16.4226 10.5893C16.2664 10.7456 16.0544 10.8334 15.8334 10.8334H14.8584C14.6862 11.3214 14.3669 11.7439 13.9445 12.0428C13.5222 12.3416 13.0175 12.5021 12.5 12.5021C11.9826 12.5021 11.4779 12.3416 11.0555 12.0428C10.6332 11.7439 10.3139 11.3214 10.1417 10.8334H4.16671C3.94569 10.8334 3.73373 10.7456 3.57745 10.5893C3.42117 10.4331 3.33337 10.2211 3.33337 10.0001C3.33337 9.77908 3.42117 9.56711 3.57745 9.41083C3.73373 9.25455 3.94569 9.16676 4.16671 9.16676H10.1417ZM7.50004 14.1668C7.27903 14.1668 7.06707 14.2546 6.91079 14.4108C6.75451 14.5671 6.66671 14.7791 6.66671 15.0001C6.66671 15.2211 6.75451 15.4331 6.91079 15.5893C7.06707 15.7456 7.27903 15.8334 7.50004 15.8334C7.72105 15.8334 7.93302 15.7456 8.0893 15.5893C8.24558 15.4331 8.33337 15.2211 8.33337 15.0001C8.33337 14.7791 8.24558 14.5671 8.0893 14.4108C7.93302 14.2546 7.72105 14.1668 7.50004 14.1668ZM5.14171 14.1668C5.31388 13.6788 5.63316 13.2563 6.05554 12.9574C6.47792 12.6585 6.98261 12.498 7.50004 12.498C8.01747 12.498 8.52216 12.6585 8.94454 12.9574C9.36693 13.2563 9.68621 13.6788 9.85837 14.1668H15.8334C16.0544 14.1668 16.2664 14.2546 16.4226 14.4108C16.5789 14.5671 16.6667 14.7791 16.6667 15.0001C16.6667 15.2211 16.5789 15.4331 16.4226 15.5893C16.2664 15.7456 16.0544 15.8334 15.8334 15.8334H9.85837C9.68621 16.3214 9.36693 16.7439 8.94454 17.0428C8.52216 17.3416 8.01747 17.5021 7.50004 17.5021C6.98261 17.5021 6.47792 17.3416 6.05554 17.0428C5.63316 16.7439 5.31388 16.3214 5.14171 15.8334H4.16671C3.94569 15.8334 3.73373 15.7456 3.57745 15.5893C3.42117 15.4331 3.33337 15.2211 3.33337 15.0001C3.33337 14.7791 3.42117 14.5671 3.57745 14.4108C3.73373 14.2546 3.94569 14.1668 4.16671 14.1668H5.14171Z" fill="white"/>
</svg>
