<svg width="32" height="32" viewBox="0 0 32 32" fill="none" xmlns="http://www.w3.org/2000/svg">
<path d="M16 29.3334C15.5883 29.3329 15.1862 29.2116 14.8462 28.9852C9.80862 25.6509 7.62733 23.3646 6.42419 21.9352C3.86022 18.8884 2.63272 15.7602 2.66734 12.3727C2.70772 8.49087 5.90178 5.33337 9.78747 5.33337C12.613 5.33337 14.5699 6.88525 15.7096 8.17775C15.7457 8.21828 15.7903 8.25078 15.8404 8.27305C15.8905 8.29533 15.9449 8.30685 16 8.30685C16.055 8.30685 16.1094 8.29533 16.1595 8.27305C16.2096 8.25078 16.2542 8.21828 16.2903 8.17775C17.43 6.884 19.387 5.33337 22.2125 5.33337C26.0981 5.33337 29.2922 8.49087 29.3326 12.3734C29.3672 15.7615 28.1384 18.8896 25.5757 21.9359C24.3726 23.3652 22.1913 25.6515 17.1537 28.9859C16.8136 29.212 16.4116 29.3331 16 29.3334Z" fill="#818181"/>
</svg>
