<svg width="40" height="40" viewBox="0 0 40 40" fill="none" xmlns="http://www.w3.org/2000/svg">
<path fill-rule="evenodd" clip-rule="evenodd" d="M21.6666 8.33341C21.6666 7.41294 20.9204 6.66675 20 6.66675C19.0795 6.66675 18.3333 7.41294 18.3333 8.33341V18.3334H8.33329C7.41282 18.3334 6.66663 19.0796 6.66663 20.0001C6.66663 20.9206 7.41282 21.6667 8.33329 21.6667H18.3333V31.6667C18.3333 32.5872 19.0795 33.3334 20 33.3334C20.9204 33.3334 21.6666 32.5872 21.6666 31.6667V21.6667H31.6666C32.5871 21.6667 33.3333 20.9206 33.3333 20.0001C33.3333 19.0796 32.5871 18.3334 31.6666 18.3334H21.6666V8.33341Z" fill="#FA7F64"/>
</svg>
