<svg width="40" height="40" viewBox="0 0 40 40" fill="none" xmlns="http://www.w3.org/2000/svg">
<path fill-rule="evenodd" clip-rule="evenodd" d="M21.6665 8.33335C21.6665 7.41288 20.9203 6.66669 19.9998 6.66669C19.0794 6.66669 18.3332 7.41288 18.3332 8.33335V18.3334H8.33317C7.4127 18.3334 6.6665 19.0795 6.6665 20C6.6665 20.9205 7.4127 21.6667 8.33317 21.6667H18.3332V31.6667C18.3332 32.5872 19.0794 33.3334 19.9998 33.3334C20.9203 33.3334 21.6665 32.5872 21.6665 31.6667V21.6667H31.6665C32.587 21.6667 33.3332 20.9205 33.3332 20C33.3332 19.0795 32.587 18.3334 31.6665 18.3334H21.6665V8.33335Z" fill="white"/>
</svg>
