<svg width="28" height="28" viewBox="0 0 28 28" fill="none" xmlns="http://www.w3.org/2000/svg">
<path fill-rule="evenodd" clip-rule="evenodd" d="M15.6666 2.33333C15.6666 1.41286 14.9204 0.666664 14 0.666664C13.0795 0.666664 12.3333 1.41286 12.3333 2.33333V12.3333H2.33329C1.41282 12.3333 0.666626 13.0795 0.666626 14C0.666626 14.9205 1.41282 15.6667 2.33329 15.6667H12.3333V25.6667C12.3333 26.5871 13.0795 27.3333 14 27.3333C14.9204 27.3333 15.6666 26.5871 15.6666 25.6667V15.6667H25.6666C26.5871 15.6667 27.3333 14.9205 27.3333 14C27.3333 13.0795 26.5871 12.3333 25.6666 12.3333H15.6666V2.33333Z" fill="white"/>
</svg>
