<svg width="16" height="16" viewBox="0 0 16 16" fill="none" xmlns="http://www.w3.org/2000/svg">
<path fill-rule="evenodd" clip-rule="evenodd" d="M8.5 4.5C8.5 4.22386 8.27614 4 8 4C7.72386 4 7.5 4.22386 7.5 4.5V7.5H4.5C4.22386 7.5 4 7.72386 4 8C4 8.27614 4.22386 8.5 4.5 8.5H7.5V11.5C7.5 11.7761 7.72386 12 8 12C8.27614 12 8.5 11.7761 8.5 11.5V8.5H11.5C11.7761 8.5 12 8.27614 12 8C12 7.72386 11.7761 7.5 11.5 7.5H8.5V4.5Z" fill="white"/>
<path fill-rule="evenodd" clip-rule="evenodd" d="M8.00004 13.6666C11.1297 13.6666 13.6667 11.1295 13.6667 7.99992C13.6667 4.87031 11.1297 2.33325 8.00004 2.33325C4.87043 2.33325 2.33337 4.87031 2.33337 7.99992C2.33337 11.1295 4.87043 13.6666 8.00004 13.6666ZM8.00004 14.6666C11.6819 14.6666 14.6667 11.6818 14.6667 7.99992C14.6667 4.31802 11.6819 1.33325 8.00004 1.33325C4.31814 1.33325 1.33337 4.31802 1.33337 7.99992C1.33337 11.6818 4.31814 14.6666 8.00004 14.6666Z" fill="white"/>
</svg>
