<svg width="320" height="112" viewBox="0 0 320 112" fill="none" xmlns="http://www.w3.org/2000/svg">
<g clip-path="url(#clip0_45_2639)">
<path fill-rule="evenodd" clip-rule="evenodd" d="M256 34.5C256 28.1487 261.149 23 267.5 23H291.5C297.851 23 303 28.1487 303 34.5C303 36.0969 302.674 37.6178 302.086 39H314.5C321.956 39 328 45.0442 328 52.5C328 59.9558 321.956 66 314.5 66H288.5C284.266 66 280.486 64.0505 278.011 61H244C237.373 61 232 55.6274 232 49C232 42.3726 237.373 37 244 37H256.273C256.094 36.1951 256 35.3586 256 34.5Z" fill="url(#paint0_linear_45_2639)"/>
<rect x="72" y="31" width="23" height="17" rx="8.5" fill="#6B6B6B"/>
<rect opacity="0.4" x="279" y="85" width="20" height="17" rx="8.5" fill="url(#paint1_linear_45_2639)"/>
<rect opacity="0.2" x="-14" y="73" width="81" height="21" rx="10.5" fill="url(#paint2_linear_45_2639)"/>
<circle opacity="0.1" cx="160" cy="61" r="51" fill="#FFC54C"/>
<circle opacity="0.1" cx="160" cy="61.0014" r="43.3881" fill="#FFC54C"/>
</g>
<defs>
<linearGradient id="paint0_linear_45_2639" x1="235" y1="45" x2="319" y2="45" gradientUnits="userSpaceOnUse">
<stop stop-color="#6B6B6B"/>
<stop offset="1" stop-color="#6B6B6B" stop-opacity="0"/>
</linearGradient>
<linearGradient id="paint1_linear_45_2639" x1="279" y1="94" x2="303" y2="94" gradientUnits="userSpaceOnUse">
<stop stop-color="#AAAAAA"/>
<stop offset="1" stop-color="#AAAAAA" stop-opacity="0"/>
</linearGradient>
<linearGradient id="paint2_linear_45_2639" x1="67" y1="84" x2="-0.499997" y2="84" gradientUnits="userSpaceOnUse">
<stop stop-color="white"/>
<stop offset="1" stop-color="white" stop-opacity="0"/>
</linearGradient>
<clipPath id="clip0_45_2639">
<rect width="320" height="112" fill="white"/>
</clipPath>
</defs>
</svg>
