<svg width="320" height="226" viewBox="0 0 320 226" fill="none" xmlns="http://www.w3.org/2000/svg">
<g clip-path="url(#clip0_127_5055)">
<g opacity="0.5">
<path opacity="0.06" fill-rule="evenodd" clip-rule="evenodd" d="M160 221C234.558 221 295 160.558 295 86C295 11.4416 234.558 -49 160 -49C85.4416 -49 25 11.4416 25 86C25 160.558 85.4416 221 160 221ZM160 222C235.111 222 296 161.111 296 86C296 10.8893 235.111 -50 160 -50C84.8893 -50 24 10.8893 24 86C24 161.111 84.8893 222 160 222Z" fill="white"/>
<path opacity="0.03" fill-rule="evenodd" clip-rule="evenodd" d="M160 259C255.545 259 333 181.545 333 86C333 -9.54527 255.545 -87 160 -87C64.4547 -87 -13 -9.54527 -13 86C-13 181.545 64.4547 259 160 259ZM160 260C256.098 260 334 182.098 334 86C334 -10.0975 256.098 -88 160 -88C63.9025 -88 -14 -10.0975 -14 86C-14 182.098 63.9025 260 160 260Z" fill="white"/>
<path opacity="0.1" fill-rule="evenodd" clip-rule="evenodd" d="M160 166C204.183 166 240 130.183 240 86C240 41.8172 204.183 6 160 6C115.817 6 80 41.8172 80 86C80 130.183 115.817 166 160 166ZM160 167C204.735 167 241 130.735 241 86C241 41.2649 204.735 5 160 5C115.265 5 79 41.2649 79 86C79 130.735 115.265 167 160 167Z" fill="white"/>
</g>
<path fill-rule="evenodd" clip-rule="evenodd" d="M47.7515 144.393C47.9152 143.286 48 142.153 48 141C48 128.297 37.7025 118 25 118C18.7161 118 13.0208 120.52 8.86958 124.605C6.72731 123.566 4.41358 123 2 123C-9.0457 123 -18 134.864 -18 149.5C-18 164.136 -9.0457 176 2 176C9.2498 176 15.5986 170.889 19.1061 163.238C20.9871 163.735 22.9626 164 25 164C27.846 164 30.5712 163.483 33.087 162.538C32.3787 165.071 32 167.741 32 170.5C32 186.792 45.2076 200 61.5 200C65.0214 200 68.3987 199.383 71.5297 198.251C77.8631 216.723 95.381 230 116 230C140.015 230 159.824 211.988 162.653 188.737C165.627 190.187 168.969 191 172.5 191C175.296 191 177.972 190.49 180.442 189.558C186.202 205.559 201.515 217 219.5 217C237.98 217 253.639 204.921 259.012 188.227C264.184 192.46 270.795 195 278 195C286.92 195 294.931 191.107 300.426 184.927C303.695 187.52 307.474 189 311.5 189C323.926 189 334 174.897 334 157.5C334 140.103 323.926 126 311.5 126C303.967 126 297.299 131.182 293.215 139.139C288.754 136.509 283.553 135 278 135C266.965 135 257.322 140.957 252.112 149.831C244.512 140.19 232.729 134 219.5 134C205.887 134 193.805 140.554 186.238 150.679C182.437 147.745 177.672 146 172.5 146C164.912 146 158.202 149.756 154.126 155.51C145.59 143.691 131.693 136 116 136C102.949 136 91.1405 141.319 82.6242 149.908C77.2662 144.413 69.7816 141 61.5 141C56.5352 141 51.8569 142.226 47.7515 144.393Z" fill="#434343"/>
<path fill-rule="evenodd" clip-rule="evenodd" d="M72.199 173C68.882 171.709 65.2738 171 61.5 171C57.7262 171 54.118 171.709 50.801 173H47.9142C47.971 172.341 48 171.674 48 171C48 158.297 37.7025 148 25 148C18.7161 148 13.0208 150.52 8.86958 154.605C6.72731 153.566 4.41358 153 2 153C-9.0457 153 -18 164.864 -18 179.5C-18 193.241 -10.1066 204.54 0 205.869V226H46.658C51.0178 228.543 56.0888 230 61.5 230C65.0214 230 68.3987 229.383 71.5297 228.251C77.8631 246.723 95.381 260 116 260C137.447 260 155.54 245.634 161.179 226H183.409C190.548 238.542 204.036 247 219.5 247C234.964 247 248.452 238.542 255.591 226H320V216.675C328.213 211.98 334 200.686 334 187.5C334 170.103 323.926 156 311.5 156C303.967 156 297.299 161.182 293.215 169.139C288.754 166.509 283.553 165 278 165C270.124 165 262.956 168.035 257.604 173H245.31C238.225 167.366 229.255 164 219.5 164C209.745 164 200.775 167.366 193.69 173H140.69C133.515 168.562 125.057 166 116 166C106.943 166 98.4848 168.562 91.3097 173H72.199Z" fill="#4B4B4B"/>
<g clip-path="url(#clip1_127_5055)">
<circle cx="288" cy="70" r="20" fill="#FFC54C"/>
<circle opacity="0.4" cx="287.385" cy="56.4611" r="4.61538" fill="#FFA63E"/>
<circle cx="287.384" cy="56.4612" r="3.41137" fill="#FFA63E"/>
<circle opacity="0.4" cx="273.231" cy="73.692" r="6.46154" fill="#FFA63E"/>
<circle cx="273.231" cy="73.6919" r="4.77592" fill="#FFA63E"/>
<circle opacity="0.4" cx="296.309" cy="85.0771" r="8" fill="#FFA63E"/>
<circle cx="296.31" cy="85.0761" r="5.91304" fill="#FFA63E"/>
</g>
<g clip-path="url(#clip2_127_5055)">
<circle cx="90" cy="9" r="15" fill="#FF8850"/>
<path fill-rule="evenodd" clip-rule="evenodd" d="M81.4609 12.0001C81.4609 10.7256 82.4941 9.69238 83.7686 9.69238H88.8456C90.1201 9.69238 91.1532 10.7256 91.1532 12.0001C91.1532 13.2746 90.1201 14.3078 88.8456 14.3078H83.7686C82.4941 14.3078 81.4609 13.2746 81.4609 12.0001Z" fill="#F95926"/>
<path fill-rule="evenodd" clip-rule="evenodd" d="M69.4609 3.23054C69.4609 1.95604 70.4941 0.922852 71.7686 0.922852H86.5379C87.8124 0.922852 88.8456 1.95604 88.8456 3.23054C88.8456 4.50505 87.8124 5.53824 86.5379 5.53824H71.7686C70.4941 5.53824 69.4609 4.50505 69.4609 3.23054Z" fill="#F95926"/>
<path fill-rule="evenodd" clip-rule="evenodd" d="M87.4609 19.3848C87.4609 18.1103 88.4941 17.0771 89.7686 17.0771H112.384C113.659 17.0771 114.692 18.1103 114.692 19.3848C114.692 20.6593 113.659 21.6925 112.384 21.6925H89.7686C88.4941 21.6925 87.4609 20.6593 87.4609 19.3848Z" fill="#F95926"/>
<path fill-rule="evenodd" clip-rule="evenodd" d="M96.6914 12.0001C96.6914 10.7256 97.7246 9.69238 98.9991 9.69238H99.9222C101.197 9.69238 102.23 10.7256 102.23 12.0001C102.23 13.2746 101.197 14.3078 99.9222 14.3078H98.9991C97.7246 14.3078 96.6914 13.2746 96.6914 12.0001Z" fill="#F95926"/>
<path fill-rule="evenodd" clip-rule="evenodd" d="M93.4609 3.23054C93.4609 1.95604 94.4941 0.922852 95.7686 0.922852H96.6917C97.9662 0.922852 98.9994 1.95604 98.9994 3.23054C98.9994 4.50505 97.9662 5.53824 96.6917 5.53824H95.7686C94.4941 5.53824 93.4609 4.50505 93.4609 3.23054Z" fill="#F95926"/>
</g>
<g clip-path="url(#clip3_127_5055)">
<g clip-path="url(#clip4_127_5055)">
<ellipse cx="36.7278" cy="108.227" rx="16.0684" ry="16.3513" transform="rotate(-10.0406 36.7278 108.227)" fill="#54CEB7"/>
<path fill-rule="evenodd" clip-rule="evenodd" d="M15.0065 104.525C14.7774 103.231 15.6222 102 16.8932 101.775L27.825 99.8396C29.096 99.6145 30.3121 100.481 30.5411 101.774C30.7701 103.067 29.9254 104.298 28.6543 104.523L17.7225 106.459C16.4515 106.684 15.2355 105.818 15.0065 104.525Z" fill="#23B1BA"/>
<path fill-rule="evenodd" clip-rule="evenodd" d="M25.8033 121.937C25.5743 120.643 26.4191 119.412 27.6901 119.187L38.6219 117.252C39.8929 117.027 41.1089 117.893 41.338 119.186C41.567 120.48 40.7222 121.711 39.4512 121.936L28.5194 123.871C27.2484 124.096 26.0323 123.23 25.8033 121.937Z" fill="#23B1BA"/>
<path fill-rule="evenodd" clip-rule="evenodd" d="M41.9342 105.796C41.7052 104.503 42.5499 103.272 43.821 103.047L50.7252 101.824C51.9963 101.599 53.2123 102.465 53.4413 103.759C53.6703 105.052 52.8256 106.283 51.5545 106.508L44.6503 107.73C43.3792 107.956 42.1632 107.089 41.9342 105.796Z" fill="#23B1BA"/>
<ellipse cx="37.9075" cy="106.509" rx="2.33722" ry="2.37837" transform="rotate(-10.0406 37.9075 106.509)" fill="#23B1BA"/>
</g>
<path fill-rule="evenodd" clip-rule="evenodd" d="M56.0919 104.258C55.1864 104.084 53.8368 104.019 52.0888 104.092C51.807 103.071 51.4334 102.095 50.9789 101.174C51.2693 101.156 51.5534 101.14 51.831 101.128C53.7212 101.043 55.3685 101.099 56.6182 101.339C57.2379 101.458 57.8474 101.638 58.3583 101.929C58.8672 102.219 59.4454 102.719 59.6423 103.53C59.6748 103.664 59.6943 103.795 59.7026 103.923C59.7497 104.616 59.4704 105.214 59.179 105.638C58.8288 106.147 58.3295 106.606 57.7844 107.019C56.684 107.851 55.1001 108.712 53.2041 109.561C49.3899 111.269 44.0411 113.049 38.0538 114.518C32.0666 115.986 26.5028 116.881 22.3344 117.131C20.2623 117.255 18.4619 117.224 17.1036 116.995C16.4307 116.881 15.777 116.704 15.2329 116.415C14.6978 116.13 14.0658 115.621 13.8576 114.764C13.8251 114.63 13.8057 114.498 13.7974 114.37C13.7534 113.718 13.998 113.15 14.2666 112.737C14.5887 112.241 15.0495 111.798 15.548 111.405C16.5533 110.61 17.9991 109.796 19.7266 108.993C19.9896 108.87 20.2603 108.748 20.5384 108.625C20.5543 109.488 20.6377 110.362 20.7931 111.239C20.8222 111.403 20.8535 111.566 20.8871 111.728C19.274 112.482 18.0857 113.174 17.3502 113.755C17.3494 113.756 17.3485 113.756 17.3476 113.757L17.3506 113.761C17.2589 113.833 17.1784 113.901 17.1079 113.963C17.2377 113.996 17.3896 114.028 17.5658 114.058C18.5108 114.217 19.8721 114.268 21.5974 114.188C21.5981 114.19 21.5988 114.192 21.5996 114.194C21.7776 114.185 21.9595 114.176 22.1451 114.165C26.0936 113.928 31.48 113.069 37.3523 111.629C43.2246 110.189 48.3993 108.458 52.0123 106.84C52.206 106.754 52.3946 106.667 52.5778 106.582C52.5775 106.58 52.5773 106.578 52.5771 106.576C54.1125 105.861 55.2749 105.196 56.0297 104.625C56.1721 104.517 56.2919 104.419 56.3921 104.33C56.3032 104.308 56.2036 104.286 56.0923 104.265L56.0933 104.259C56.0929 104.259 56.0924 104.259 56.0919 104.258Z" fill="#FA7F64"/>
</g>
<circle opacity="0.6" cx="262.5" cy="105.5" r="1.5" fill="#FFB74A"/>
<circle opacity="0.6" cx="83.5" cy="124.5" r="2.5" fill="#FFB74A"/>
<circle opacity="0.6" cx="132.5" cy="16.5" r="2.5" fill="#FF9A94"/>
<circle cx="286.5" cy="127.5" r="1.5" fill="#434CA3"/>
<circle opacity="0.6" cx="35.5" cy="40.5" r="1.5" fill="#434CA3"/>
<path opacity="0.4" fill-rule="evenodd" clip-rule="evenodd" d="M260.016 21.1548C262.14 25.0288 260.722 29.8915 256.848 32.016L225.848 49.016C221.974 51.1404 217.111 49.7222 214.987 45.8482C212.863 41.9742 214.281 37.1115 218.155 34.987L249.155 17.987C253.029 15.8625 257.892 17.2808 260.016 21.1548Z" fill="url(#paint0_linear_127_5055)"/>
<path opacity="0.3" fill-rule="evenodd" clip-rule="evenodd" d="M66.0508 33.219C68.1399 37.1122 66.6773 41.9618 62.7841 44.0508L21.7841 66.0508C17.8909 68.1399 13.0413 66.6773 10.9523 62.7841C8.86324 58.8909 10.3258 54.0413 14.219 51.9523L55.219 29.9523C59.1122 27.8632 63.9618 29.3258 66.0508 33.219Z" fill="url(#paint1_linear_127_5055)"/>
</g>
<defs>
<linearGradient id="paint0_linear_127_5055" x1="219.617" y1="43.5829" x2="255.305" y2="24.8473" gradientUnits="userSpaceOnUse">
<stop offset="0.0001" stop-color="#424BA3"/>
<stop offset="1" stop-color="#C559F8" stop-opacity="0"/>
</linearGradient>
<linearGradient id="paint1_linear_127_5055" x1="14.8477" y1="61.0481" x2="61.5991" y2="35.9647" gradientUnits="userSpaceOnUse">
<stop stop-color="#FF8181"/>
<stop offset="1" stop-color="#FF4921" stop-opacity="0"/>
</linearGradient>
<clipPath id="clip0_127_5055">
<rect width="320" height="226" fill="white"/>
</clipPath>
<clipPath id="clip1_127_5055">
<rect x="268" y="50" width="40" height="40" rx="20" fill="white"/>
</clipPath>
<clipPath id="clip2_127_5055">
<rect x="75" y="-6" width="30" height="30" rx="15" fill="white"/>
</clipPath>
<clipPath id="clip3_127_5055">
<rect width="47.913" height="32.7025" fill="white" transform="translate(10 96.3535) rotate(-10.0406)"/>
</clipPath>
<clipPath id="clip4_127_5055">
<rect x="18.0547" y="94.9277" width="32.1368" height="32.7025" rx="16.0684" transform="rotate(-10.0406 18.0547 94.9277)" fill="white"/>
</clipPath>
</defs>
</svg>
