<svg width="88" height="88" viewBox="0 0 88 88" fill="none" xmlns="http://www.w3.org/2000/svg">
<g clip-path="url(#clip0_45_2548)">
<path d="M41.1646 1.13955C42.7507 -0.37985 45.2493 -0.379851 46.8354 1.13955L58.4025 12.22C59.0288 12.8199 59.8285 13.2058 60.6871 13.3223L76.5453 15.4749C78.7199 15.7701 80.2777 17.7273 80.081 19.9172L78.6468 35.8868C78.5692 36.7515 78.7667 37.6185 79.2111 38.3638L87.4188 52.1284C88.5443 54.0159 87.9883 56.4566 86.1569 57.6678L72.8013 66.5013C72.0782 66.9795 71.5248 67.6749 71.2203 68.4876L65.597 83.4993C64.8259 85.5577 62.5748 86.6439 60.4877 85.9645L45.2678 81.01C44.4438 80.7417 43.5562 80.7417 42.7321 81.01L27.5122 85.9645C25.4252 86.6439 23.1741 85.5577 22.403 83.4993L16.7797 68.4876C16.4752 67.6749 15.9218 66.9795 15.1987 66.5013L1.84311 57.6678C0.0117296 56.4566 -0.544252 54.0159 0.58123 52.1284L8.78895 38.3638C9.23332 37.6185 9.43084 36.7515 9.35319 35.8868L7.91897 19.9172C7.7223 17.7273 9.28013 15.7701 11.4547 15.4749L27.3129 13.3223C28.1715 13.2058 28.9712 12.8199 29.5974 12.22L41.1646 1.13955Z" fill="#AFAFAF"/>
<g style="mix-blend-mode:multiply" opacity="0.4">
<path fill-rule="evenodd" clip-rule="evenodd" d="M83.548 45.9722L87.4184 52.4503C88.5442 54.3347 87.988 56.7714 86.1561 57.9807L72.7963 66.7997C72.073 67.2772 71.5194 67.9714 71.2148 68.7828L65.5897 83.7701C64.8184 85.8252 62.5666 86.9096 60.4789 86.2313L45.2542 81.2848C44.4299 81.017 43.542 81.017 42.7177 81.2848L27.493 86.2313C25.4054 86.9096 23.1535 85.8252 22.3822 83.7701L16.7571 68.7828C16.4525 67.9714 15.8989 67.2772 15.1756 66.7997L1.81586 57.9807C-0.0160988 56.7714 -0.572255 54.3347 0.55358 52.4503L5.29241 44.5185C8.34855 42.8768 11.8081 42.376 15.725 43.49C26.427 46.5336 35.9084 45.2616 45.6905 43.9493C57.097 42.419 68.9122 40.8339 83.548 45.9722Z" fill="#AFAFAF"/>
</g>
<g style="mix-blend-mode:multiply" opacity="0.6">
<path fill-rule="evenodd" clip-rule="evenodd" d="M87.8985 55.4596C87.6728 56.459 87.0749 57.3742 86.1562 57.9807L72.7964 66.7997C72.0731 67.2772 71.5195 67.9714 71.215 68.7828L65.5898 83.7701C64.8185 85.8252 62.5667 86.9096 60.479 86.2313L45.2543 81.2848C44.43 81.017 43.5421 81.017 42.7178 81.2848L27.4932 86.2313C25.4055 86.9096 23.1536 85.8252 22.3823 83.7701L16.7572 68.7828C16.4526 67.9714 15.899 67.2772 15.1757 66.7997L7.04321 61.4313C9.17978 59.1301 11.9842 56.9485 15.6755 54.9615C29.4103 47.568 40.1519 49.3845 54.4722 51.8062C63.1435 53.2726 73.127 54.9609 85.8817 54.9606C86.623 54.9606 87.2935 55.1348 87.8985 55.4596Z" fill="#AFAFAF"/>
</g>
</g>
<defs>
<clipPath id="clip0_45_2548">
<rect width="88" height="88" fill="white"/>
</clipPath>
</defs>
</svg>
